<?xml version="1.0" encoding="utf-8"?>
<!-- Generator: Adobe Illustrator 28.7.1, SVG Export Plug-In . SVG Version: 9.03 Build 54978)  -->
<svg version="1.1" id="Layer_1" xmlns="http://www.w3.org/2000/svg" xmlns:xlink="http://www.w3.org/1999/xlink" x="0px" y="0px"
	 viewBox="0 0 512 512" style="enable-background:new 0 0 512 512;" xml:space="preserve">
<g id="_x30_5_Popular">
	<path xmlns="http://www.w3.org/2000/svg" d="M396.6,194.3c-1.4-1.7-3.1-1.4-3.9-1c-0.7,0.3-2.4,1.2-2.2,3.6c0.3,2.9,0.4,5.8,0.5,8.7c0.1,12-4.7,23.8-13.2,32.3   c-8.5,8.5-19.6,13-31.5,12.9c-16.2-0.2-29.7-8.7-38.9-24.5c-7.6-13.1-4.3-29.9-0.7-47.7c2.1-10.4,4.2-21.2,4.2-31.5   c0-80-53.8-126.1-85.8-146.5c-0.7-0.4-1.3-0.6-1.9-0.6c-0.9,0-1.6,0.4-2,0.6c-0.7,0.5-1.8,1.5-1.4,3.4   c12.3,65.1-24.3,104.2-63,145.6c-39.9,42.7-85.1,91.1-85.1,178.4c0,101.4,82.5,183.9,183.9,183.9c83.5,0,157.1-58.2,179.1-141.6   C449.6,313.6,434,241.2,396.6,194.3z M260.2,472.7c-25.4,1.2-49.6-8-68-25.6c-18.3-17.5-28.7-41.8-28.7-66.8   c0-46.9,17.9-81.4,66.2-127.1c0.8-0.7,1.6-1,2.3-1c0.6,0,1.2,0.2,1.6,0.4c0.8,0.4,2.1,1.3,1.9,3.4c-1.7,20.1-1.7,36.8,0.1,49.6   c4.6,32.7,28.5,54.6,59.5,54.6c15.2,0,29.7-5.7,40.8-16.1c1.3-1.2,2.7-1.1,3.3-0.9c0.7,0.2,1.7,0.6,2.2,1.8c4.6,11.1,7,22.9,7,35.1   C348.7,429,309.1,470.5,260.2,472.7L260.2,472.7z" style="&#10;    fill: #196135;&#10;"/>
</g>
</svg>