<?xml version="1.0" encoding="utf-8"?>
<!-- Generator: Adobe Illustrator 28.7.1, SVG Export Plug-In . SVG Version: 9.03 Build 54978)  -->
<svg version="1.1" id="Capa_1" xmlns="http://www.w3.org/2000/svg" xmlns:xlink="http://www.w3.org/1999/xlink" x="0px" y="0px"
	 viewBox="0 0 211.4 211.4" style="enable-background:new 0 0 211.4 211.4;fill: #051905;" xml:space="preserve">
<style type="text/css">
	<!-- .st0{fill:url(#SVGID_1_);}
	.st1{fill:url(#SVGID_00000063618852236945018590000013550309415069028994_);}
	.st2{fill:url(#SVGID_00000012444162325588974690000006443240666273177775_);} -->
</style>
<g>
	<g>
		<linearGradient id="SVGID_1_" gradientUnits="userSpaceOnUse" x1="64.8333" y1="-42.5623" x2="256.586" y2="140.9773">
			<stop  offset="1.104800e-03" style="stop-color:#051905"/>
			<stop  offset="0.2094" style="stop-color:#051905"/>
			<stop  offset="0.3765" style="stop-color:#051905"/>
			<stop  offset="0.5238" style="stop-color:#051905"/>
			<stop  offset="0.7394" style="stop-color:#051905"/>
			<stop  offset="1" style="stop-color:#051905"/>
		</linearGradient>
		<path class="st0" d="M161.7,37.8c-6.8,0-12.4,5.5-12.4,12.4c0,6.8,5.6,12.4,12.4,12.4c6.8,0,12.4-5.5,12.4-12.4
			C174.1,43.3,168.5,37.8,161.7,37.8z"/>
		
			<linearGradient id="SVGID_00000028304100469256123960000006888518316890728099_" gradientUnits="userSpaceOnUse" x1="10.7272" y1="13.9657" x2="202.4794" y2="197.5048">
			<stop  offset="1.104800e-03" style="stop-color:#051905"/>
			<stop  offset="0.2094" style="stop-color:#051905"/>
			<stop  offset="0.3765" style="stop-color:#051905"/>
			<stop  offset="0.5238" style="stop-color:#051905"/>
			<stop  offset="0.7394" style="stop-color:#051905"/>
			<stop  offset="1" style="stop-color:#051905"/>
		</linearGradient>
		<path style="fill:url(#SVGID_00000028304100469256123960000006888518316890728099_);" d="M106.6,53.6c-28.7,0-52.1,23.4-52.1,52.1
			c0,28.7,23.4,52.1,52.1,52.1c28.7,0,52.1-23.4,52.1-52.1C158.7,77,135.3,53.6,106.6,53.6z M106.6,139.1c-18.4,0-33.4-15-33.4-33.4
			s15-33.4,33.4-33.4c18.4,0,33.4,15,33.4,33.4S125,139.1,106.6,139.1z"/>
		
			<linearGradient id="SVGID_00000115487246937533095780000000837338329442716330_" gradientUnits="userSpaceOnUse" x1="10.3119" y1="14.3997" x2="202.0628" y2="197.9375">
			<stop  offset="1.104800e-03" style="stop-color:#051905"/>
			<stop  offset="0.2094" style="stop-color:#051905"/>
			<stop  offset="0.3765" style="stop-color:#051905"/>
			<stop  offset="0.5238" style="stop-color:#051905"/>
			<stop  offset="0.7394" style="stop-color:#051905"/>
			<stop  offset="1" style="stop-color:#051905"/>
		</linearGradient>
		<path style="fill:url(#SVGID_00000115487246937533095780000000837338329442716330_);" d="M147.9,211.4H63.5
			c-35,0-63.5-28.5-63.5-63.5V63.5C0,28.5,28.5,0,63.5,0h84.4c35,0,63.5,28.5,63.5,63.5v84.4C211.4,182.9,182.9,211.4,147.9,211.4z
			 M63.5,19.9c-24.1,0-43.6,19.6-43.6,43.6v84.4c0,24.1,19.6,43.6,43.6,43.6h84.4c24.1,0,43.6-19.6,43.6-43.6V63.5
			c0-24.1-19.6-43.6-43.6-43.6H63.5z"/>
	</g>
</g>
</svg>