<?xml version="1.0" encoding="utf-8"?>
<!-- Generator: Adobe Illustrator 28.7.1, SVG Export Plug-In . SVG Version: 9.03 Build 54978)  -->
<svg version="1.1" id="Layer_2" xmlns="http://www.w3.org/2000/svg" xmlns:xlink="http://www.w3.org/1999/xlink" x="0px" y="0px"
	 viewBox="0 0 103.2 113.9" style="enable-background:new 0 0 103.2 113.9; fill: #fff;" xml:space="preserve">
<g>
	<g>
		<g>
			<path d="M63.7,108.1L63.7,108.1H38.8c-0.9,0-1.6,0.7-1.6,1.6c0,0.9,0.7,1.6,1.6,1.6h3.7c0,0,0,0,0,0c0,1.5,3.9,2.7,8.7,2.7
				c4.8,0,8.7-1.2,8.7-2.7c0,0,0,0,0,0h3.7c0.9,0,1.6-0.7,1.6-1.6C65.2,108.8,64.5,108.1,63.7,108.1z M6.2,76.5L8,79.7l11.8-6.8
				l-1.8-3.2L6.2,76.5z M13.6,50.3H0V54h13.6V50.3z M78.7,7.7l-3.2-1.8l-6.8,11.8l3.2,1.8L78.7,7.7z M53.1,0h-3.7v13.7h3.7V0z
				 M33.9,18L27.1,6.2L23.9,8l6.8,11.8L33.9,18z M19.4,31.4L7.7,24.6l-1.8,3.2l11.8,6.8L19.4,31.4z M83.7,72.3l11.8,6.8l1.8-3.2
				l-11.8-6.8L83.7,72.3z M97,27.2L95.2,24l-11.8,6.8l1.8,3.2L97,27.2z M64.8,103.7H37.7c-0.9,0-1.6,0.7-1.6,1.6
				c0,0.9,0.7,1.6,1.6,1.6h27.2c0.9,0,1.6-0.7,1.6-1.6C66.4,104.4,65.7,103.7,64.8,103.7z M89.6,49.7v3.7h13.6v-3.7H89.6z M66,99.3
				H36.5c-0.9,0-1.6,0.7-1.6,1.6c0,0.9,0.7,1.6,1.6,1.6H66c0.9,0,1.6-0.7,1.6-1.6C67.6,100,66.9,99.3,66,99.3z M70.7,29L70.7,29
				c-2.5-2.7-5.4-4.8-8.7-6.3c-3.4-1.5-7-2.3-10.7-2.3c0,0,0,0,0,0c-7,0-13.7,2.8-18.8,8c-2.7,2.7-4.8,5.9-6.3,9.6
				c-1.5,3.7-2.3,7.7-2.3,11.8c0,3.2,0.5,6.4,1.4,9.4c0.9,2.9,2.3,5.6,4,8.1c2.9,4.1,4.5,9.3,4.5,14.5v9.3c0,1,0.8,1.8,1.8,1.8H67
				c1,0,1.8-0.8,1.8-1.8v-9.3c0-5.2,1.6-10.4,4.4-14.5c1.7-2.5,3.1-5.2,4-8.1c0.9-3,1.4-6.2,1.4-9.4c0-3.9-0.7-7.8-2.1-11.4
				C75.2,34.9,73.2,31.7,70.7,29z M48,89.2L48,89.2l-4.6-29.4l0,0c0.3,0.3,0.7,0.5,1.1,0.5s0.8-0.2,1.1-0.5l2.3-2.4l2.3,2.4
				c0.3,0.3,0.7,0.5,1.1,0.5c0.4,0,0.8-0.2,1.1-0.5l2.3-2.4l2.3,2.4c0.3,0.3,0.7,0.5,1.1,0.5c0.4,0,0.8-0.2,1.1-0.5l0,0l-4.6,29.4
				H48z M70.3,65.1L70.3,65.1c-1.7,2.4-2.9,5-3.8,7.9c-0.9,2.8-1.3,5.8-1.3,8.8v7.5h-7.6l5.3-33.8c0.1-0.7-0.2-1.3-0.8-1.6
				c-0.6-0.3-1.3-0.2-1.8,0.3L58,56.5l-2.3-2.4c-0.3-0.3-0.7-0.5-1.1-0.5c-0.4,0-0.8,0.2-1.1,0.5l-2.3,2.4L49,54.1
				c-0.3-0.3-0.7-0.5-1.1-0.5c-0.4,0-0.8,0.2-1.1,0.5l-2.3,2.4l-2.3-2.5c-0.5-0.5-1.2-0.6-1.8-0.3c-0.6,0.3-0.9,1-0.8,1.6l5.3,33.8
				h-7.6v-7.5c0-3-0.4-5.9-1.3-8.8c-0.9-2.9-2.2-5.5-3.8-7.9c-3.1-4.5-4.7-9.8-4.7-15.4c0-7.1,2.8-13.9,7.6-18.8
				c4.4-4.4,10.2-6.9,16.2-6.9c0,0,0,0,0,0C64.4,24.1,75,35.6,75,49.7C75,55.3,73.4,60.6,70.3,65.1z M67.2,94.8h-32
				c-0.9,0-1.6,0.7-1.6,1.6c0,0.9,0.7,1.6,1.6,1.6h32c0.9,0,1.6-0.7,1.6-1.6C68.8,95.6,68.1,94.8,67.2,94.8z"/>
		</g>
	</g>
</g>
</svg>