<?xml version="1.0" encoding="utf-8"?>
<!-- Generator: Adobe Illustrator 28.7.1, SVG Export Plug-In . SVG Version: 9.03 Build 54978)  -->
<svg version="1.1" id="Layer_1" xmlns="http://www.w3.org/2000/svg" xmlns:xlink="http://www.w3.org/1999/xlink" x="0px" y="0px"
	 viewBox="0 0 379.2 289.6" style="enable-background:new 0 0 379.2 289.6;" xml:space="preserve">
<style type="text/css">
	.st0{fill:#D6895D;}
	.st1{fill:#DFA633;}
</style>
<g>
	<g>
		<g>
			<path class="st0" d="M180.8,267c-1.4,0.1-2.8,0.4-4.2,0.4c-64.4-1.1-122.2-50.1-133.7-114c-7.4-40.8,0.8-78.4,25.7-112
				c1.4-1.9,2.5-4.3,3.1-6.6C76,19.5,84.8,8.6,100.3,4.1c6.3-1.9,13-2.6,20.7-4.1C109,16.4,97.6,31.2,79,38.4
				c-3.4,1.3-6.8,4.2-9,7.2c-60.5,83-11.4,200.9,90,216.6c5.7,0.9,11.6,1.2,17.4,1.9c1.3,0.2,2.5,0.7,3.8,1
				C181,265.7,180.9,266.4,180.8,267z"/>
			<path class="st0" d="M259.4,0.8c21.1,0.9,38.8,6.8,46.5,27.4c3.2,8.4,7.7,15.6,12.4,23c37.9,59.7,25,139.1-29.9,184.1
				c-24.5,20.1-52.7,30.7-84.4,31.9c-1.6,0.1-3.3-0.4-4.9-0.6c0-0.5-0.1-1.1-0.1-1.6c1.6-0.4,3.1-1,4.7-1
				c90.9-4.5,140.9-84.6,132-154.1c-3.2-24.8-12.3-47.3-27.5-67.2c-1.3-1.7-3.5-3.1-5.5-3.9c-13.4-5.4-24.8-13.5-33.2-25.5
				C266.6,9.2,263.1,5.4,259.4,0.8z"/>
			<path class="st0" d="M365,56.2c2.1,13.3,5.7,26.4,1.8,39.8c-3.3,11.3-12.4,18.9-22.3,18.9C342.6,92.5,345.8,71.9,365,56.2z"/>
			<path class="st0" d="M151.6,269.7c-2.4,10.8-11.3,18.4-23.9,19.6c-13.1,1.3-25.1-3.4-37.6-7.3C108.5,267.2,129.7,263,151.6,269.7
				z"/>
			<path class="st0" d="M40.4,240.7c23.8-10.3,43.4-3.2,62.8,9c-3.1,5.3-7.6,8.3-13.1,10c-7.3,2.1-14.8,2-21.4-1.6
				C59.2,253,50.4,246.9,40.4,240.7z"/>
			<path class="st0" d="M48.6,64.5c-10.1-5.1-15.5-16.8-13.3-28.9c2.2-12.4,9-22.7,15.3-33.3C61.2,18.5,60.2,46.6,48.6,64.5z"/>
			<path class="st0" d="M10.2,183.6c25-1,40.9,12.6,54.4,30.5c-8.3,6.6-20.8,6.9-30.3-0.4c-5.8-4.5-10.5-10.5-15.2-16.3
				C15.7,193.2,13.2,188.3,10.2,183.6z"/>
			<path class="st0" d="M339.3,239.7c-11.3,8.6-21.1,17.9-34.7,20.6c-8.9,1.8-17.3,0.2-24.2-6.1c-1.3-1.2-2.3-2.7-3.4-4.1
				C294.9,236.3,312.9,233.2,339.3,239.7z"/>
			<path class="st0" d="M369.9,183.5c-6.6,10.7-12.4,21.9-22.7,29.5c-7.4,5.5-15.9,7.6-25,4.9c-2.3-0.7-4.4-2-7-3.3
				C329.1,196,345.1,182.6,369.9,183.5z"/>
			<path class="st0" d="M331,64.5c-9.5-20.7-13.9-41.2-1.4-62.5c6.4,11.5,14,22.2,15.5,35.8C346.4,49.4,340.8,60.3,331,64.5z"/>
			<path class="st0" d="M379.2,119.5c-3.5,14.4-4.1,29.8-15.7,41.1c-6.7,6.5-14.6,9.5-24.6,6.9C345.5,145.7,355.2,127.1,379.2,119.5
				z"/>
			<path class="st0" d="M228.8,269.4c22.2-4.6,43-4.2,60.9,12.8c-13,3.9-25.7,9.1-39.7,6.7C238.5,287,230,279.1,228.8,269.4z"/>
			<path class="st0" d="M0,119.2c24.8,8,34.6,26.4,41.6,49.3c-5.2-0.4-9.7-0.1-13.8-1.2c-8.2-2.3-14.7-7.8-17.8-15.7
				C6.1,141.3,3.5,130.5,0,119.2z"/>
			<path class="st0" d="M35.3,115.4c-8-0.7-13.6-4.8-17.8-11c-4.1-5.9-6.2-12.6-5.7-19.8c0.7-9.4,1.8-18.8,2.8-28.6
				C30.5,66.9,39.6,93.3,35.3,115.4z"/>
			<path class="st0" d="M269.7,238.6c-9.9-18.1-2.8-33.8,5.8-49.1C290.7,204.9,290.4,224.5,269.7,238.6z"/>
			<path class="st0" d="M292.8,157.9c24.5,13,23.4,32.6,11.9,48.4C289.1,193,290.4,175.8,292.8,157.9z"/>
			<path class="st0" d="M49.1,116.5c2.7-24.9,18.8-33.9,40.5-28.3C80.1,103,69.6,116.5,49.1,116.5z"/>
			<path class="st0" d="M60.9,70.4C72,49.3,89.7,44.6,109.3,58.3C94.9,68.8,80.2,77.8,60.9,70.4z"/>
			<path class="st0" d="M319,70.5c-19.1,7.3-33.7-1.6-47.9-12C288.6,45.2,308.2,48.2,319,70.5z"/>
			<path class="st0" d="M297.8,122.4c24.6,5.3,36.1,22.3,28,41.3C306.7,156.8,301.8,140.2,297.8,122.4z"/>
			<path class="st0" d="M131.5,212c18.7,16.7,25,25.6,22.9,43.9C134.6,255.6,124,235.7,131.5,212z"/>
			<path class="st0" d="M87.2,157.9c2.5,17.9,3.8,35.1-11.8,48.4C64.8,192.1,61.7,171.6,87.2,157.9z"/>
			<path class="st0" d="M248.6,212.2c9.8,26-4.4,40.2-23,44.1C222.7,236.1,234.9,223.9,248.6,212.2z"/>
			<path class="st0" d="M290.4,88c23.2-5.4,37.9,4.4,40.6,27.7C319.3,119.4,301.3,107.1,290.4,88z"/>
			<path class="st0" d="M54.2,163.4c-8.2-18.4,3.7-36,27.7-40.9C82,140.1,68.6,159.9,54.2,163.4z"/>
			<path class="st0" d="M104.4,188.8c8.7,15.8,15.8,31.5,6.4,49.2C92.4,232.1,89.3,208.6,104.4,188.8z"/>
		</g>
	</g>
</g>
<polygon class="st1" points="283.1,106.8 181.1,107.5 164.5,61.5 147.9,109.2 99.8,109.2 138.5,137.4 123.3,185.4 163.3,156.5 
	115.2,196.4 133.1,139.8 84.4,102.9 145.3,103.1 164.5,48.6 182.6,103.1 "/>
<g>
	<path d="M188.7,86h3.3v14.2h-3.3V86z"/>
	<path d="M207.9,86v14.2h-2.7l-7.1-8.6v8.6h-3.2V86h2.7l7.1,8.6V86H207.9z"/>
	<path d="M210.9,86h6.4c4.6,0,7.8,2.8,7.8,7.1s-3.2,7.1-7.8,7.1h-6.4V86z M217.2,97.5c2.8,0,4.7-1.7,4.7-4.4s-1.8-4.4-4.7-4.4h-3
		v8.8H217.2z"/>
	<path d="M227.2,86h3.3v14.2h-3.3V86z"/>
	<path d="M242.8,97.2h-6.6l-1.3,3h-3.4L238,86h3.2l6.3,14.2h-3.4L242.8,97.2z M241.8,94.7l-2.3-5.4l-2.3,5.4H241.8z"/>
	<path d="M261.6,86v14.2h-2.7l-7.1-8.6v8.6h-3.2V86h2.7l7.1,8.6V86H261.6z"/>
</g>
<g>
	<path d="M187.4,144.7h-6.6l-1.3,3h-3.4l6.3-14.2h3.2l6.3,14.2h-3.4L187.4,144.7z M186.4,142.2l-2.3-5.4l-2.3,5.4H186.4z"/>
	<path d="M213.9,133.5l-4.6,14.2h-3.5l-3.1-9.6l-3.2,9.6h-3.5l-4.7-14.2h3.4l3.2,10l3.3-10h3l3.2,10.1l3.3-10.1H213.9z"/>
	<path d="M224.2,144.7h-6.6l-1.3,3H213l6.3-14.2h3.2l6.3,14.2h-3.4L224.2,144.7z M223.2,142.2l-2.3-5.4l-2.3,5.4H223.2z"/>
	<path d="M239,147.7l-2.7-4h-0.2h-2.9v4H230v-14.2h6.1c3.8,0,6.2,2,6.2,5.2c0,2.1-1.1,3.7-2.9,4.5l3.2,4.6H239z M236,136.2h-2.7v4.9
		h2.7c2,0,3-0.9,3-2.5C239,137.1,238,136.2,236,136.2z"/>
	<path d="M253.6,147.7l-2.7-4h-0.2h-2.9v4h-3.3v-14.2h6.1c3.8,0,6.2,2,6.2,5.2c0,2.1-1.1,3.7-2.9,4.5l3.2,4.6H253.6z M250.5,136.2
		h-2.7v4.9h2.7c2,0,3-0.9,3-2.5C253.5,137.1,252.5,136.2,250.5,136.2z"/>
	<path d="M259,133.5h6.4c4.6,0,7.8,2.8,7.8,7.1s-3.2,7.1-7.8,7.1H259V133.5z M265.3,145c2.8,0,4.7-1.7,4.7-4.4s-1.8-4.4-4.7-4.4h-3
		v8.8H265.3z"/>
</g>
<g>
	<path d="M174.1,123h-6.6l-1.3,3h-3.4l6.3-14.2h3.2l6.3,14.2h-3.4L174.1,123z M173,120.5l-2.3-5.4l-2.3,5.4H173z"/>
	<path d="M178.8,119c0-4.3,3.3-7.3,7.7-7.3c2.5,0,4.5,0.9,5.8,2.5l-2.1,1.9c-1-1.1-2.1-1.7-3.6-1.7c-2.7,0-4.5,1.9-4.5,4.5
		s1.9,4.5,4.5,4.5c1.4,0,2.6-0.6,3.6-1.7l2.1,1.9c-1.3,1.6-3.4,2.5-5.9,2.5C182,126.3,178.8,123.3,178.8,119z"/>
	<path d="M207.1,111.9v14.2h-3.3v-5.8h-6.4v5.8h-3.3v-14.2h3.3v5.6h6.4v-5.6H207.1z"/>
	<path d="M210.1,111.9h3.3v14.2h-3.3V111.9z"/>
	<path d="M227.3,123.4v2.6h-11v-14.2h10.7v2.6h-7.5v3.1h6.6v2.6h-6.6v3.3H227.3z"/>
	<path d="M243,111.9l-6.1,14.2h-3.2l-6.1-14.2h3.5l4.3,10.1l4.4-10.1H243z"/>
	<path d="M254.8,123.4v2.6h-11v-14.2h10.7v2.6H247v3.1h6.6v2.6H247v3.3H254.8z"/>
	<path d="M266,126.1l-2.7-4h-0.2h-2.9v4H257v-14.2h6.1c3.8,0,6.2,2,6.2,5.2c0,2.1-1.1,3.7-2.9,4.5l3.2,4.6H266z M262.9,114.6h-2.7
		v4.9h2.7c2,0,3-0.9,3-2.5C266,115.5,265,114.6,262.9,114.6z"/>
	<path d="M270.4,124.7l1.1-2.5c1.2,0.9,3,1.5,4.7,1.5c1.9,0,2.7-0.6,2.7-1.5c0-2.7-8.3-0.8-8.3-6.1c0-2.4,1.9-4.4,6-4.4
		c1.8,0,3.6,0.4,4.9,1.3l-1,2.5c-1.3-0.8-2.7-1.1-3.9-1.1c-1.9,0-2.7,0.7-2.7,1.6c0,2.6,8.3,0.8,8.3,6c0,2.4-2,4.4-6,4.4
		C273.9,126.3,271.6,125.7,270.4,124.7z"/>
	<path d="M286.8,112.8c0,0.5-0.1,0.9-0.5,2l-1.2,2.9h-2l0.9-3.2c-0.6-0.3-1.1-0.9-1.1-1.7c0-1.2,0.9-1.9,2-1.9
		C286,110.9,286.8,111.7,286.8,112.8z"/>
</g>
<g>
	<path d="M187.9,153.9h0.4v4h-0.4V153.9z"/>
	<path d="M192.2,156.1v1.7h-0.4v-1.7c0-0.6-0.3-1-0.9-1c-0.6,0-1.1,0.4-1.1,1.1v1.6h-0.4v-3h0.4v0.6c0.2-0.4,0.6-0.6,1.1-0.6
		C191.7,154.9,192.2,155.3,192.2,156.1z"/>
	<path d="M195.9,153.6v4.2h-0.4v-0.6c-0.2,0.4-0.7,0.6-1.2,0.6c-0.9,0-1.5-0.6-1.5-1.5s0.6-1.5,1.5-1.5c0.5,0,0.9,0.2,1.1,0.6v-1.8
		H195.9z M195.5,156.4c0-0.7-0.5-1.2-1.1-1.2c-0.6,0-1.1,0.5-1.1,1.2s0.5,1.2,1.1,1.2C195.1,157.6,195.5,157.1,195.5,156.4z"/>
	<path d="M196.9,153.9c0-0.2,0.1-0.3,0.3-0.3s0.3,0.1,0.3,0.3c0,0.2-0.1,0.3-0.3,0.3C197,154.2,196.9,154.1,196.9,153.9z M197,154.9
		h0.4v3H197V154.9z"/>
	<path d="M200.7,156v1.9h-0.4v-0.5c-0.2,0.3-0.5,0.5-1,0.5c-0.7,0-1.1-0.4-1.1-0.9c0-0.5,0.3-0.9,1.2-0.9h1V156
		c0-0.5-0.3-0.8-0.9-0.8c-0.4,0-0.8,0.1-1,0.4l-0.2-0.3c0.3-0.3,0.8-0.4,1.2-0.4C200.2,154.9,200.7,155.2,200.7,156z M200.2,157
		v-0.5h-0.9c-0.6,0-0.8,0.2-0.8,0.5c0,0.3,0.3,0.6,0.8,0.6C199.7,157.6,200.1,157.4,200.2,157z"/>
	<path d="M201.9,153.9c0,0.1,0,0.2-0.1,0.3l-0.2,0.8h-0.3l0.2-0.8c-0.1,0-0.2-0.1-0.2-0.3c0-0.2,0.1-0.3,0.3-0.3
		C201.8,153.6,201.9,153.7,201.9,153.9z"/>
	<path d="M202.2,157.5l0.2-0.3c0.2,0.2,0.6,0.3,1.1,0.3c0.6,0,0.8-0.2,0.8-0.5c0-0.8-2-0.2-2-1.4c0-0.5,0.4-0.9,1.2-0.9
		c0.4,0,0.8,0.1,1.1,0.3l-0.2,0.3c-0.3-0.2-0.6-0.3-0.9-0.3c-0.5,0-0.8,0.2-0.8,0.5c0,0.8,2,0.2,2,1.4c0,0.5-0.5,0.9-1.2,0.9
		C202.9,157.9,202.4,157.8,202.2,157.5z"/>
	<path d="M210.9,153.9v4h-0.4v-3.2l-1.6,2.7h-0.2l-1.6-2.7v3.2h-0.4v-4h0.3l1.7,3l1.7-3H210.9z"/>
	<path d="M211.7,156.4c0-0.9,0.7-1.5,1.5-1.5c0.9,0,1.5,0.6,1.5,1.5s-0.6,1.5-1.5,1.5C212.4,157.9,211.7,157.3,211.7,156.4z
		 M214.4,156.4c0-0.7-0.5-1.2-1.1-1.2s-1.1,0.5-1.1,1.2s0.5,1.2,1.1,1.2S214.4,157.1,214.4,156.4z"/>
	<path d="M215.1,157.5l0.2-0.3c0.2,0.2,0.6,0.3,1.1,0.3c0.6,0,0.8-0.2,0.8-0.5c0-0.8-2-0.2-2-1.4c0-0.5,0.4-0.9,1.2-0.9
		c0.4,0,0.8,0.1,1.1,0.3l-0.2,0.3c-0.3-0.2-0.6-0.3-0.9-0.3c-0.5,0-0.8,0.2-0.8,0.5c0,0.8,2,0.2,2,1.4c0,0.5-0.5,0.9-1.2,0.9
		C215.8,157.9,215.3,157.8,215.1,157.5z"/>
	<path d="M219.8,157.7c-0.2,0.1-0.4,0.2-0.6,0.2c-0.6,0-0.9-0.3-0.9-0.9v-1.8h-0.5v-0.3h0.5v-0.7h0.4v0.7h0.9v0.3h-0.9v1.8
		c0,0.4,0.2,0.5,0.5,0.5c0.2,0,0.3-0.1,0.4-0.2L219.8,157.7z"/>
	<path d="M221.5,155.9c0-1.2,0.9-2,2.1-2c0.6,0,1.1,0.2,1.5,0.6l-0.3,0.3c-0.3-0.3-0.7-0.5-1.2-0.5c-1,0-1.7,0.7-1.7,1.7
		c0,1,0.7,1.7,1.7,1.7c0.5,0,0.9-0.1,1.2-0.5l0.3,0.3c-0.4,0.4-0.9,0.6-1.5,0.6C222.4,157.9,221.5,157.1,221.5,155.9z"/>
	<path d="M225.4,156.4c0-0.9,0.7-1.5,1.5-1.5c0.9,0,1.5,0.6,1.5,1.5s-0.6,1.5-1.5,1.5C226,157.9,225.4,157.3,225.4,156.4z
		 M228,156.4c0-0.7-0.5-1.2-1.1-1.2s-1.1,0.5-1.1,1.2s0.5,1.2,1.1,1.2S228,157.1,228,156.4z"/>
	<path d="M231.6,154.9l-1.3,3h-0.4l-1.3-3h0.4l1.1,2.6l1.1-2.6H231.6z"/>
	<path d="M234.6,156.5h-2.5c0,0.6,0.5,1,1.2,1c0.4,0,0.7-0.1,0.9-0.4l0.2,0.3c-0.3,0.3-0.7,0.5-1.2,0.5c-0.9,0-1.6-0.6-1.6-1.5
		s0.6-1.5,1.5-1.5c0.8,0,1.5,0.6,1.5,1.5C234.6,156.4,234.6,156.5,234.6,156.5z M232.1,156.2h2.1c-0.1-0.6-0.5-1-1.1-1
		C232.5,155.2,232.1,155.6,232.1,156.2z"/>
	<path d="M236.9,157.7c-0.2,0.1-0.4,0.2-0.6,0.2c-0.6,0-0.9-0.3-0.9-0.9v-1.8h-0.5v-0.3h0.5v-0.7h0.4v0.7h0.9v0.3h-0.9v1.8
		c0,0.4,0.2,0.5,0.5,0.5c0.2,0,0.3-0.1,0.4-0.2L236.9,157.7z"/>
	<path d="M240,156.5h-2.5c0,0.6,0.5,1,1.2,1c0.4,0,0.7-0.1,0.9-0.4l0.2,0.3c-0.3,0.3-0.7,0.5-1.2,0.5c-0.9,0-1.6-0.6-1.6-1.5
		s0.6-1.5,1.5-1.5c0.8,0,1.5,0.6,1.5,1.5C240,156.4,240,156.5,240,156.5z M237.5,156.2h2.1c-0.1-0.6-0.5-1-1.1-1
		C238,155.2,237.6,155.6,237.5,156.2z"/>
	<path d="M243.5,153.6v4.2h-0.4v-0.6c-0.2,0.4-0.7,0.6-1.2,0.6c-0.9,0-1.5-0.6-1.5-1.5s0.6-1.5,1.5-1.5c0.5,0,0.9,0.2,1.1,0.6v-1.8
		H243.5z M243.1,156.4c0-0.7-0.5-1.2-1.1-1.2c-0.6,0-1.1,0.5-1.1,1.2s0.5,1.2,1.1,1.2C242.6,157.6,243.1,157.1,243.1,156.4z"/>
	<path d="M248.5,156.8h-2.2l-0.5,1.1h-0.4l1.8-4h0.4l1.8,4H249L248.5,156.8z M248.3,156.5l-1-2.2l-1,2.2H248.3z"/>
	<path d="M254.2,154.9l-1.1,3h-0.4l-1-2.5l-0.9,2.5h-0.4l-1.1-3h0.4l0.9,2.6l1-2.6h0.3l1,2.6l1-2.6H254.2z"/>
	<path d="M256.8,156v1.9h-0.4v-0.5c-0.2,0.3-0.5,0.5-1,0.5c-0.7,0-1.1-0.4-1.1-0.9c0-0.5,0.3-0.9,1.2-0.9h1V156
		c0-0.5-0.3-0.8-0.9-0.8c-0.4,0-0.8,0.1-1,0.4l-0.2-0.3c0.3-0.3,0.8-0.4,1.2-0.4C256.4,154.9,256.8,155.2,256.8,156z M256.4,157
		v-0.5h-0.9c-0.6,0-0.8,0.2-0.8,0.5c0,0.3,0.3,0.6,0.8,0.6C255.9,157.6,256.3,157.4,256.4,157z"/>
	<path d="M259.4,154.9v0.4c0,0-0.1,0-0.1,0c-0.6,0-1,0.4-1,1.1v1.5h-0.4v-3h0.4v0.6C258.4,155.1,258.8,154.9,259.4,154.9z"/>
	<path d="M262.7,153.6v4.2h-0.4v-0.6c-0.2,0.4-0.7,0.6-1.2,0.6c-0.9,0-1.5-0.6-1.5-1.5s0.6-1.5,1.5-1.5c0.5,0,0.9,0.2,1.1,0.6v-1.8
		H262.7z M262.3,156.4c0-0.7-0.5-1.2-1.1-1.2c-0.6,0-1.1,0.5-1.1,1.2s0.5,1.2,1.1,1.2C261.8,157.6,262.3,157.1,262.3,156.4z"/>
	<path d="M174.8,164.8l-0.9-1.3c-0.1,0-0.2,0-0.3,0h-1.1v1.3H172v-4h1.5c1,0,1.6,0.5,1.6,1.4c0,0.6-0.3,1.1-0.9,1.3l1,1.4H174.8z
		 M174.7,162.1c0-0.6-0.4-1-1.2-1h-1.1v2h1.1C174.3,163.1,174.7,162.8,174.7,162.1z"/>
	<path d="M178.6,163.4h-2.5c0,0.6,0.5,1,1.2,1c0.4,0,0.7-0.1,0.9-0.4l0.2,0.3c-0.3,0.3-0.7,0.5-1.2,0.5c-0.9,0-1.6-0.6-1.6-1.5
		s0.6-1.5,1.5-1.5c0.8,0,1.5,0.6,1.5,1.5C178.6,163.3,178.6,163.3,178.6,163.4z M176.1,163.1h2.1c-0.1-0.6-0.5-1-1.1-1
		C176.5,162.1,176.1,162.5,176.1,163.1z"/>
	<path d="M179,163.3c0-0.9,0.7-1.5,1.5-1.5c0.5,0,0.9,0.2,1.2,0.6l-0.3,0.2c-0.2-0.3-0.5-0.4-0.9-0.4c-0.7,0-1.1,0.5-1.1,1.2
		c0,0.7,0.5,1.2,1.1,1.2c0.3,0,0.7-0.1,0.9-0.4l0.3,0.2c-0.2,0.4-0.7,0.6-1.2,0.6C179.6,164.8,179,164.2,179,163.3z"/>
	<path d="M182.1,163.3c0-0.9,0.7-1.5,1.5-1.5c0.9,0,1.5,0.6,1.5,1.5s-0.6,1.5-1.5,1.5C182.7,164.8,182.1,164.1,182.1,163.3z
		 M184.7,163.3c0-0.7-0.5-1.2-1.1-1.2s-1.1,0.5-1.1,1.2s0.5,1.2,1.1,1.2S184.7,164,184.7,163.3z"/>
	<path d="M188.6,161.7v2.6c0,1-0.5,1.5-1.5,1.5c-0.5,0-1.1-0.2-1.4-0.5l0.2-0.3c0.3,0.3,0.7,0.4,1.2,0.4c0.8,0,1.1-0.3,1.1-1.1v-0.4
		c-0.3,0.4-0.7,0.6-1.2,0.6c-0.9,0-1.5-0.6-1.5-1.5s0.7-1.5,1.5-1.5c0.5,0,0.9,0.2,1.2,0.6v-0.6H188.6z M188.2,163.2
		c0-0.7-0.5-1.1-1.1-1.1c-0.7,0-1.1,0.4-1.1,1.1s0.5,1.1,1.1,1.1C187.7,164.3,188.2,163.8,188.2,163.2z"/>
	<path d="M192.4,163v1.7H192v-1.7c0-0.6-0.3-1-0.9-1c-0.6,0-1.1,0.4-1.1,1.1v1.6h-0.4v-3h0.4v0.6c0.2-0.4,0.6-0.6,1.1-0.6
		C191.9,161.7,192.4,162.1,192.4,163z"/>
	<path d="M193.3,160.8c0-0.2,0.1-0.3,0.3-0.3s0.3,0.1,0.3,0.3c0,0.2-0.1,0.3-0.3,0.3C193.5,161.1,193.3,161,193.3,160.8z
		 M193.4,161.7h0.4v3h-0.4V161.7z"/>
	<path d="M194.4,164.4l0.2-0.3c0.2,0.2,0.6,0.3,1.1,0.3c0.6,0,0.8-0.2,0.8-0.5c0-0.8-2-0.2-2-1.4c0-0.5,0.4-0.9,1.2-0.9
		c0.4,0,0.8,0.1,1.1,0.3l-0.2,0.3c-0.3-0.2-0.6-0.3-0.9-0.3c-0.5,0-0.8,0.2-0.8,0.5c0,0.8,2,0.2,2,1.4c0,0.5-0.5,0.9-1.2,0.9
		C195.1,164.8,194.7,164.6,194.4,164.4z"/>
	<path d="M197.4,160.8c0-0.2,0.1-0.3,0.3-0.3s0.3,0.1,0.3,0.3c0,0.2-0.1,0.3-0.3,0.3C197.6,161.1,197.4,161,197.4,160.8z
		 M197.5,161.7h0.4v3h-0.4V161.7z"/>
	<path d="M201.7,163v1.7h-0.4v-1.7c0-0.6-0.3-1-0.9-1c-0.6,0-1.1,0.4-1.1,1.1v1.6H199v-3h0.4v0.6c0.2-0.4,0.6-0.6,1.1-0.6
		C201.2,161.7,201.7,162.1,201.7,163z"/>
	<path d="M205.5,161.7v2.6c0,1-0.5,1.5-1.5,1.5c-0.5,0-1.1-0.2-1.4-0.5l0.2-0.3c0.3,0.3,0.7,0.4,1.2,0.4c0.8,0,1.1-0.3,1.1-1.1v-0.4
		c-0.3,0.4-0.7,0.6-1.2,0.6c-0.9,0-1.5-0.6-1.5-1.5s0.7-1.5,1.5-1.5c0.5,0,0.9,0.2,1.2,0.6v-0.6H205.5z M205.1,163.2
		c0-0.7-0.5-1.1-1.1-1.1c-0.7,0-1.1,0.4-1.1,1.1s0.5,1.1,1.1,1.1C204.6,164.3,205.1,163.8,205.1,163.2z"/>
	<path d="M210.5,163.7h-2.2l-0.5,1.1h-0.4l1.8-4h0.4l1.8,4H211L210.5,163.7z M210.4,163.3l-1-2.2l-1,2.2H210.4z"/>
	<path d="M211.6,163.3c0-0.9,0.7-1.5,1.5-1.5c0.5,0,0.9,0.2,1.2,0.6l-0.3,0.2c-0.2-0.3-0.5-0.4-0.9-0.4c-0.7,0-1.1,0.5-1.1,1.2
		c0,0.7,0.5,1.2,1.1,1.2c0.3,0,0.7-0.1,0.9-0.4l0.3,0.2c-0.2,0.4-0.7,0.6-1.2,0.6C212.2,164.8,211.6,164.2,211.6,163.3z"/>
	<path d="M217.7,163v1.7h-0.4v-1.7c0-0.6-0.3-1-0.9-1c-0.6,0-1.1,0.4-1.1,1.1v1.6H215v-4.2h0.4v1.8c0.2-0.3,0.6-0.5,1.1-0.5
		C217.2,161.7,217.7,162.1,217.7,163z"/>
	<path d="M218.6,160.8c0-0.2,0.1-0.3,0.3-0.3s0.3,0.1,0.3,0.3c0,0.2-0.1,0.3-0.3,0.3C218.8,161.1,218.6,161,218.6,160.8z
		 M218.7,161.7h0.4v3h-0.4V161.7z"/>
	<path d="M222.8,163.4h-2.5c0,0.6,0.5,1,1.2,1c0.4,0,0.7-0.1,0.9-0.4l0.2,0.3c-0.3,0.3-0.7,0.5-1.2,0.5c-0.9,0-1.6-0.6-1.6-1.5
		s0.6-1.5,1.5-1.5c0.8,0,1.5,0.6,1.5,1.5C222.8,163.3,222.8,163.3,222.8,163.4z M220.2,163.1h2.1c-0.1-0.6-0.5-1-1.1-1
		C220.7,162.1,220.3,162.5,220.2,163.1z"/>
	<path d="M226,161.7l-1.3,3h-0.4l-1.3-3h0.4l1.1,2.6l1.1-2.6H226z"/>
	<path d="M229,163.4h-2.5c0,0.6,0.5,1,1.2,1c0.4,0,0.7-0.1,0.9-0.4l0.2,0.3c-0.3,0.3-0.7,0.5-1.2,0.5c-0.9,0-1.6-0.6-1.6-1.5
		s0.6-1.5,1.5-1.5c0.8,0,1.5,0.6,1.5,1.5C229,163.3,229,163.3,229,163.4z M226.4,163.1h2.1c-0.1-0.6-0.5-1-1.1-1
		C226.9,162.1,226.5,162.5,226.4,163.1z"/>
	<path d="M234.6,163v1.7h-0.4v-1.7c0-0.6-0.3-1-0.9-1c-0.6,0-1,0.4-1,1.1v1.6H232v-1.7c0-0.6-0.3-1-0.9-1c-0.6,0-1,0.4-1,1.1v1.6
		h-0.4v-3h0.4v0.5c0.2-0.4,0.6-0.6,1.1-0.6c0.5,0,0.9,0.2,1.1,0.6c0.2-0.4,0.6-0.6,1.2-0.6C234.2,161.7,234.6,162.1,234.6,163z"/>
	<path d="M238.3,163.4h-2.5c0,0.6,0.5,1,1.2,1c0.4,0,0.7-0.1,0.9-0.4l0.2,0.3c-0.3,0.3-0.7,0.5-1.2,0.5c-0.9,0-1.6-0.6-1.6-1.5
		s0.6-1.5,1.5-1.5c0.8,0,1.5,0.6,1.5,1.5C238.3,163.3,238.3,163.3,238.3,163.4z M235.8,163.1h2.1c-0.1-0.6-0.5-1-1.1-1
		C236.2,162.1,235.8,162.5,235.8,163.1z"/>
	<path d="M241.8,163v1.7h-0.4v-1.7c0-0.6-0.3-1-0.9-1c-0.6,0-1.1,0.4-1.1,1.1v1.6H239v-3h0.4v0.6c0.2-0.4,0.6-0.6,1.1-0.6
		C241.3,161.7,241.8,162.1,241.8,163z"/>
	<path d="M244.3,164.6c-0.2,0.1-0.4,0.2-0.6,0.2c-0.6,0-0.9-0.3-0.9-0.9v-1.8h-0.5v-0.3h0.5v-0.7h0.4v0.7h0.9v0.3h-0.9v1.8
		c0,0.4,0.2,0.5,0.5,0.5c0.2,0,0.3-0.1,0.4-0.2L244.3,164.6z"/>
	<path d="M244.6,164.4l0.2-0.3c0.2,0.2,0.6,0.3,1.1,0.3c0.6,0,0.8-0.2,0.8-0.5c0-0.8-2-0.2-2-1.4c0-0.5,0.4-0.9,1.2-0.9
		c0.4,0,0.8,0.1,1.1,0.3l-0.2,0.3c-0.3-0.2-0.6-0.3-0.9-0.3c-0.5,0-0.8,0.2-0.8,0.5c0,0.8,2,0.2,2,1.4c0,0.5-0.5,0.9-1.2,0.9
		C245.3,164.8,244.8,164.6,244.6,164.4z"/>
	<path d="M248.7,164.3l0.2-0.3c0.3,0.3,0.8,0.5,1.3,0.5c0.7,0,1.1-0.3,1.1-0.7c0-1.1-2.5-0.4-2.5-1.9c0-0.6,0.5-1.1,1.5-1.1
		c0.5,0,0.9,0.1,1.2,0.4l-0.1,0.3c-0.3-0.2-0.7-0.3-1.1-0.3c-0.7,0-1.1,0.3-1.1,0.7c0,1.1,2.5,0.4,2.5,1.9c0,0.6-0.5,1.1-1.5,1.1
		C249.6,164.8,249,164.6,248.7,164.3z"/>
	<path d="M252.4,160.8c0-0.2,0.1-0.3,0.3-0.3s0.3,0.1,0.3,0.3c0,0.2-0.1,0.3-0.3,0.3C252.5,161.1,252.4,161,252.4,160.8z
		 M252.4,161.7h0.4v3h-0.4V161.7z"/>
	<path d="M256.6,163v1.7h-0.4v-1.7c0-0.6-0.3-1-0.9-1c-0.6,0-1.1,0.4-1.1,1.1v1.6h-0.4v-3h0.4v0.6c0.2-0.4,0.6-0.6,1.1-0.6
		C256.1,161.7,256.6,162.1,256.6,163z"/>
	<path d="M257.3,163.3c0-0.9,0.7-1.5,1.5-1.5c0.5,0,0.9,0.2,1.2,0.6l-0.3,0.2c-0.2-0.3-0.5-0.4-0.9-0.4c-0.7,0-1.1,0.5-1.1,1.2
		c0,0.7,0.5,1.2,1.1,1.2c0.3,0,0.7-0.1,0.9-0.4l0.3,0.2c-0.2,0.4-0.7,0.6-1.2,0.6C258,164.8,257.3,164.2,257.3,163.3z"/>
	<path d="M263.3,163.4h-2.5c0,0.6,0.5,1,1.2,1c0.4,0,0.7-0.1,0.9-0.4l0.2,0.3c-0.3,0.3-0.7,0.5-1.2,0.5c-0.9,0-1.6-0.6-1.6-1.5
		s0.6-1.5,1.5-1.5c0.8,0,1.5,0.6,1.5,1.5C263.3,163.3,263.3,163.3,263.3,163.4z M260.8,163.1h2.1c-0.1-0.6-0.5-1-1.1-1
		C261.3,162.1,260.9,162.5,260.8,163.1z"/>
	<path d="M267.9,164.4v0.4h-2.8v-0.3l1.7-1.6c0.5-0.4,0.5-0.7,0.5-1c0-0.5-0.3-0.8-0.9-0.8c-0.5,0-0.8,0.1-1.1,0.4l-0.3-0.3
		c0.3-0.4,0.8-0.6,1.4-0.6c0.8,0,1.3,0.4,1.3,1.1c0,0.4-0.1,0.7-0.7,1.3l-1.4,1.3H267.9z"/>
	<path d="M268.3,162.8c0-1.3,0.7-2,1.6-2c0.9,0,1.6,0.8,1.6,2c0,1.3-0.7,2-1.6,2C269,164.8,268.3,164,268.3,162.8z M271.1,162.8
		c0-1.1-0.5-1.7-1.2-1.7c-0.7,0-1.2,0.6-1.2,1.7c0,1.1,0.5,1.7,1.2,1.7C270.6,164.4,271.1,163.8,271.1,162.8z"/>
	<path d="M272,162.8c0-1.3,0.7-2,1.6-2c0.9,0,1.6,0.8,1.6,2c0,1.3-0.7,2-1.6,2C272.6,164.8,272,164,272,162.8z M274.7,162.8
		c0-1.1-0.5-1.7-1.2-1.7c-0.7,0-1.2,0.6-1.2,1.7c0,1.1,0.5,1.7,1.2,1.7C274.3,164.4,274.7,163.8,274.7,162.8z"/>
	<path d="M275.6,162.8c0-1.3,0.7-2,1.6-2c0.9,0,1.6,0.8,1.6,2c0,1.3-0.7,2-1.6,2C276.3,164.8,275.6,164,275.6,162.8z M278.4,162.8
		c0-1.1-0.5-1.7-1.2-1.7c-0.7,0-1.2,0.6-1.2,1.7c0,1.1,0.5,1.7,1.2,1.7C277.9,164.4,278.4,163.8,278.4,162.8z"/>
</g>
<g>
	<path d="M205.2,169.7l-1.1,3h-0.4l-1-2.5l-0.9,2.5h-0.4l-1.1-3h0.4l0.9,2.6l1-2.6h0.3l1,2.6l1-2.6H205.2z"/>
	<path d="M210.1,169.7l-1.1,3h-0.4l-1-2.5l-0.9,2.5h-0.4l-1.1-3h0.4l0.9,2.6l1-2.6h0.3l1,2.6l1-2.6H210.1z"/>
	<path d="M215,169.7l-1.1,3h-0.4l-1-2.5l-0.9,2.5h-0.4l-1.1-3h0.4l0.9,2.6l1-2.6h0.3l1,2.6l1-2.6H215z"/>
	<path d="M215.1,172.4c0-0.2,0.1-0.3,0.3-0.3s0.3,0.1,0.3,0.3s-0.1,0.3-0.3,0.3S215.1,172.6,215.1,172.4z"/>
	<path d="M216.3,168.7c0-0.2,0.1-0.3,0.3-0.3s0.3,0.1,0.3,0.3c0,0.2-0.1,0.3-0.3,0.3C216.5,169,216.3,168.9,216.3,168.7z
		 M216.4,169.7h0.4v3h-0.4V169.7z"/>
	<path d="M220.1,170.8v1.9h-0.4v-0.5c-0.2,0.3-0.5,0.5-1,0.5c-0.7,0-1.1-0.4-1.1-0.9c0-0.5,0.3-0.9,1.2-0.9h1v-0.2
		c0-0.5-0.3-0.8-0.9-0.8c-0.4,0-0.8,0.1-1,0.4l-0.2-0.3c0.3-0.3,0.8-0.4,1.2-0.4C219.7,169.7,220.1,170.1,220.1,170.8z M219.7,171.8
		v-0.5h-0.9c-0.6,0-0.8,0.2-0.8,0.5c0,0.3,0.3,0.6,0.8,0.6C219.2,172.4,219.6,172.2,219.7,171.8z"/>
	<path d="M222.1,168.4c0.2,0,0.5,0.1,0.6,0.2l-0.1,0.3c-0.1-0.1-0.3-0.1-0.4-0.1c-0.3,0-0.5,0.2-0.5,0.6v0.4h0.9v0.3h-0.9v2.7h-0.4
		V170h-0.5v-0.3h0.5v-0.4C221.2,168.8,221.5,168.4,222.1,168.4z M224,168.7c0,0.2-0.1,0.3-0.3,0.3c-0.2,0-0.3-0.1-0.3-0.3
		c0-0.2,0.1-0.3,0.3-0.3S224,168.6,224,168.7z M223.5,169.7h0.4v3h-0.4V169.7z"/>
	<path d="M227.7,171v1.7h-0.4V171c0-0.6-0.3-1-0.9-1c-0.6,0-1.1,0.4-1.1,1.1v1.6h-0.4v-3h0.4v0.6c0.2-0.4,0.6-0.6,1.1-0.6
		C227.2,169.7,227.7,170.1,227.7,171z"/>
	<path d="M231.5,168.5v4.2h-0.4v-0.6c-0.2,0.4-0.7,0.6-1.2,0.6c-0.9,0-1.5-0.6-1.5-1.5s0.6-1.5,1.5-1.5c0.5,0,0.9,0.2,1.1,0.6v-1.8
		H231.5z M231.1,171.2c0-0.7-0.5-1.2-1.1-1.2c-0.6,0-1.1,0.5-1.1,1.2s0.5,1.2,1.1,1.2C230.6,172.4,231.1,171.9,231.1,171.2z"/>
	<path d="M232.4,168.7c0-0.2,0.1-0.3,0.3-0.3s0.3,0.1,0.3,0.3c0,0.2-0.1,0.3-0.3,0.3C232.5,169,232.4,168.9,232.4,168.7z
		 M232.5,169.7h0.4v3h-0.4V169.7z"/>
	<path d="M236.2,170.8v1.9h-0.4v-0.5c-0.2,0.3-0.5,0.5-1,0.5c-0.7,0-1.1-0.4-1.1-0.9c0-0.5,0.3-0.9,1.2-0.9h1v-0.2
		c0-0.5-0.3-0.8-0.9-0.8c-0.4,0-0.8,0.1-1,0.4l-0.2-0.3c0.3-0.3,0.8-0.4,1.2-0.4C235.7,169.7,236.2,170.1,236.2,170.8z M235.8,171.8
		v-0.5h-0.9c-0.6,0-0.8,0.2-0.8,0.5c0,0.3,0.3,0.6,0.8,0.6C235.3,172.4,235.6,172.2,235.8,171.8z"/>
	<path d="M236.9,172.4c0-0.2,0.1-0.3,0.3-0.3s0.3,0.1,0.3,0.3s-0.1,0.3-0.3,0.3S236.9,172.6,236.9,172.4z"/>
	<path d="M237.9,171.2c0-0.9,0.7-1.5,1.5-1.5c0.5,0,0.9,0.2,1.2,0.6l-0.3,0.2c-0.2-0.3-0.5-0.4-0.9-0.4c-0.7,0-1.1,0.5-1.1,1.2
		c0,0.7,0.5,1.2,1.1,1.2c0.3,0,0.7-0.1,0.9-0.4l0.3,0.2c-0.2,0.4-0.7,0.6-1.2,0.6C238.5,172.7,237.9,172.1,237.9,171.2z"/>
	<path d="M240.9,171.2c0-0.9,0.7-1.5,1.5-1.5s1.5,0.6,1.5,1.5s-0.6,1.5-1.5,1.5S240.9,172.1,240.9,171.2z M243.6,171.2
		c0-0.7-0.5-1.2-1.1-1.2s-1.1,0.5-1.1,1.2s0.5,1.2,1.1,1.2S243.6,171.9,243.6,171.2z"/>
	<path d="M249.7,171v1.7h-0.4V171c0-0.6-0.3-1-0.9-1c-0.6,0-1,0.4-1,1.1v1.6H247V171c0-0.6-0.3-1-0.9-1c-0.6,0-1,0.4-1,1.1v1.6h-0.4
		v-3h0.4v0.5c0.2-0.4,0.6-0.6,1.1-0.6c0.5,0,0.9,0.2,1.1,0.6c0.2-0.4,0.6-0.6,1.2-0.6C249.2,169.7,249.7,170.1,249.7,171z"/>
</g>
<g>
	<path d="M264.3,82.7h-1.5v-0.4h3.5v0.4h-1.5v3.9h-0.5V82.7z"/>
	<path d="M271.3,82.3v4.3h-0.4v-3.4l-1.7,2.9H269l-1.7-2.9v3.4h-0.4v-4.3h0.4l1.9,3.2l1.8-3.2H271.3z"/>
</g>
</svg>