<?xml version="1.0" encoding="utf-8"?>
<!-- Generator: Adobe Illustrator 28.7.1, SVG Export Plug-In . SVG Version: 9.03 Build 54978)  -->
<svg version="1.1" id="Layer_1" xmlns="http://www.w3.org/2000/svg" xmlns:xlink="http://www.w3.org/1999/xlink" x="0px" y="0px"
	 viewBox="0 0 379.2 289.6" style="enable-background:new 0 0 379.2 289.6;" xml:space="preserve">
<style type="text/css">
	.st0{fill:#D6895D;}
	.st1{fill:#142559;}
	.st2{fill:#26BBF3;}
</style>
<g>
	<g>
		<g>
			<path class="st0" d="M180.8,267c-1.4,0.1-2.8,0.4-4.2,0.4c-64.4-1.1-122.2-50.1-133.7-114c-7.4-40.8,0.8-78.4,25.7-112
				c1.4-1.9,2.5-4.3,3.1-6.6C76,19.5,84.8,8.6,100.3,4.1c6.3-1.9,13-2.6,20.7-4.1C109,16.4,97.6,31.2,79,38.4
				c-3.4,1.3-6.8,4.2-9,7.2c-60.5,83-11.4,200.9,90,216.6c5.7,0.9,11.6,1.2,17.4,1.9c1.3,0.2,2.5,0.7,3.8,1
				C181,265.7,180.9,266.4,180.8,267z"/>
			<path class="st0" d="M259.4,0.8c21.1,0.9,38.8,6.8,46.5,27.4c3.2,8.4,7.7,15.6,12.4,23c37.9,59.7,25,139.1-29.9,184.1
				c-24.5,20.1-52.7,30.7-84.4,31.9c-1.6,0.1-3.3-0.4-4.9-0.6c0-0.5-0.1-1.1-0.1-1.6c1.6-0.4,3.1-1,4.7-1
				c90.9-4.5,140.9-84.6,132-154.1c-3.2-24.8-12.3-47.3-27.5-67.2c-1.3-1.7-3.5-3.1-5.5-3.9c-13.4-5.4-24.8-13.5-33.2-25.5
				C266.6,9.2,263.1,5.4,259.4,0.8z"/>
			<path class="st0" d="M365,56.2c2.1,13.3,5.7,26.4,1.8,39.8c-3.3,11.3-12.4,18.9-22.3,18.9C342.6,92.5,345.8,71.9,365,56.2z"/>
			<path class="st0" d="M151.6,269.7c-2.4,10.8-11.3,18.4-23.9,19.6c-13.1,1.3-25.1-3.4-37.6-7.3C108.5,267.2,129.7,263,151.6,269.7
				z"/>
			<path class="st0" d="M40.4,240.7c23.8-10.3,43.4-3.2,62.8,9c-3.1,5.3-7.6,8.3-13.1,10c-7.3,2.1-14.8,2-21.4-1.6
				C59.2,253,50.4,246.9,40.4,240.7z"/>
			<path class="st0" d="M48.6,64.5c-10.1-5.1-15.5-16.8-13.3-28.9c2.2-12.4,9-22.7,15.3-33.3C61.2,18.5,60.2,46.6,48.6,64.5z"/>
			<path class="st0" d="M10.2,183.6c25-1,40.9,12.6,54.4,30.5c-8.3,6.6-20.8,6.9-30.3-0.4c-5.8-4.5-10.5-10.5-15.2-16.3
				C15.7,193.2,13.2,188.3,10.2,183.6z"/>
			<path class="st0" d="M339.3,239.7c-11.3,8.6-21.1,17.9-34.7,20.6c-8.9,1.8-17.3,0.2-24.2-6.1c-1.3-1.2-2.3-2.7-3.4-4.1
				C294.9,236.3,312.9,233.2,339.3,239.7z"/>
			<path class="st0" d="M369.9,183.5c-6.6,10.7-12.4,21.9-22.7,29.5c-7.4,5.5-15.9,7.6-25,4.9c-2.3-0.7-4.4-2-7-3.3
				C329.1,196,345.1,182.6,369.9,183.5z"/>
			<path class="st0" d="M331,64.5c-9.5-20.7-13.9-41.2-1.4-62.5c6.4,11.5,14,22.2,15.5,35.8C346.4,49.4,340.8,60.3,331,64.5z"/>
			<path class="st0" d="M379.2,119.5c-3.5,14.4-4.1,29.8-15.7,41.1c-6.7,6.5-14.6,9.5-24.6,6.9C345.5,145.7,355.2,127.1,379.2,119.5
				z"/>
			<path class="st0" d="M228.8,269.4c22.2-4.6,43-4.2,60.9,12.8c-13,3.9-25.7,9.1-39.7,6.7C238.5,287,230,279.1,228.8,269.4z"/>
			<path class="st0" d="M0,119.2c24.8,8,34.6,26.4,41.6,49.3c-5.2-0.4-9.7-0.1-13.8-1.2c-8.2-2.3-14.7-7.8-17.8-15.7
				C6.1,141.3,3.5,130.5,0,119.2z"/>
			<path class="st0" d="M35.3,115.4c-8-0.7-13.6-4.8-17.8-11c-4.1-5.9-6.2-12.6-5.7-19.8c0.7-9.4,1.8-18.8,2.8-28.6
				C30.5,66.9,39.6,93.3,35.3,115.4z"/>
			<path class="st0" d="M269.7,238.6c-9.9-18.1-2.8-33.8,5.8-49.1C290.7,204.9,290.4,224.5,269.7,238.6z"/>
			<path class="st0" d="M292.8,157.9c24.5,13,23.4,32.6,11.9,48.4C289.1,193,290.4,175.8,292.8,157.9z"/>
			<path class="st0" d="M49.1,116.5c2.7-24.9,18.8-33.9,40.5-28.3C80.1,103,69.6,116.5,49.1,116.5z"/>
			<path class="st0" d="M60.9,70.4C72,49.3,89.7,44.6,109.3,58.3C94.9,68.8,80.2,77.8,60.9,70.4z"/>
			<path class="st0" d="M319,70.5c-19.1,7.3-33.7-1.6-47.9-12C288.6,45.2,308.2,48.2,319,70.5z"/>
			<path class="st0" d="M297.8,122.4c24.6,5.3,36.1,22.3,28,41.3C306.7,156.8,301.8,140.2,297.8,122.4z"/>
			<path class="st0" d="M131.5,212c18.7,16.7,25,25.6,22.9,43.9C134.6,255.6,124,235.7,131.5,212z"/>
			<path class="st0" d="M87.2,157.9c2.5,17.9,3.8,35.1-11.8,48.4C64.8,192.1,61.7,171.6,87.2,157.9z"/>
			<path class="st0" d="M248.6,212.2c9.8,26-4.4,40.2-23,44.1C222.7,236.1,234.9,223.9,248.6,212.2z"/>
			<path class="st0" d="M290.4,88c23.2-5.4,37.9,4.4,40.6,27.7C319.3,119.4,301.3,107.1,290.4,88z"/>
			<path class="st0" d="M54.2,163.4c-8.2-18.4,3.7-36,27.7-40.9C82,140.1,68.6,159.9,54.2,163.4z"/>
			<path class="st0" d="M104.4,188.8c8.7,15.8,15.8,31.5,6.4,49.2C92.4,232.1,89.3,208.6,104.4,188.8z"/>
		</g>
	</g>
	<g>
		<g>
			<polygon class="st1" points="112.9,106.8 112.1,100.9 91.1,100.9 91.1,155.4 112.9,155.4 112.9,150.2 98.6,150.2 98.6,130.3 
				110.1,130.3 110.1,123.8 98.5,123.8 98.5,106.8 			"/>
			<polygon class="st1" points="170,106.8 169.2,100.9 148.1,100.9 148.1,155.4 170,155.4 170,150.2 155.7,150.2 155.7,130.3 
				167.1,130.3 167.1,123.8 155.6,123.8 155.6,106.8 			"/>
			<polygon class="st1" points="288.1,106.8 287.3,100.9 266.3,100.9 266.3,155.4 288.1,155.4 288.1,150.2 273.8,150.2 273.8,130.3 
				285.3,130.3 285.3,123.8 273.7,123.8 273.7,106.8 			"/>
			<polygon class="st2" points="118.7,75.7 127.1,75.7 127.1,124.1 141.1,124.1 141.1,129.7 118.7,129.7 			"/>
			<polygon class="st1" points="175.9,101.5 183.5,101.5 192.2,139.2 201.1,101.5 208.7,101.5 195.9,155.4 188.1,155.4 			"/>
			<polygon class="st1" points="235.7,155.4 223.5,101.5 215.7,101.5 202.9,155.4 210.6,155.4 219.4,117.7 223.1,133.7 218.2,133.7 
				217,139.8 224.5,139.8 228.1,155.4 			"/>
			<rect x="231.9" y="101.5" class="st1" width="28.5" height="5.8"/>
			
				<rect x="220.7" y="126.1" transform="matrix(6.123234e-17 -1 1 6.123234e-17 116.3202 376.064)" class="st1" width="51" height="7.5"/>
		</g>
		<g>
			<path d="M152.1,66.7l-2.7,9h-2l-1.8-6.1l-1.9,6.1h-2l-2.7-9h2l1.8,6.3l1.9-6.3h1.7l1.9,6.4l1.9-6.4H152.1z"/>
			<path d="M153.2,66.7h1.9v9h-1.9V66.7z"/>
			<path d="M164.5,66.7v9h-1.5l-4.1-5.5v5.5H157v-9h1.6l4.1,5.5v-5.5H164.5z"/>
			<path d="M173.9,66.7v9h-1.5l-4.1-5.5v5.5h-1.9v-9h1.6l4.1,5.5v-5.5H173.9z"/>
			<path d="M182.1,74v1.7h-6.3v-9h6.2v1.7h-4.3v2h3.8v1.6h-3.8V74H182.1z"/>
			<path d="M188.8,75.7l-1.6-2.5h-0.1h-1.6v2.5h-1.9v-9h3.5c2.2,0,3.5,1.2,3.5,3.3c0,1.3-0.6,2.3-1.7,2.8l1.8,2.9H188.8z
				 M187.1,68.4h-1.5v3.1h1.5c1.2,0,1.7-0.6,1.7-1.6C188.8,69,188.2,68.4,187.1,68.4z"/>
			<path d="M201.1,74v1.7h-6.2v-1.3l3.1-3.3c0.7-0.8,0.9-1.2,0.9-1.7c0-0.7-0.4-1.1-1.3-1.1c-0.7,0-1.3,0.3-1.7,0.9l-1.4-1
				c0.6-1,1.8-1.7,3.2-1.7c1.8,0,3,1,3,2.7c0,0.9-0.2,1.7-1.4,2.8l-1.9,2H201.1z"/>
			<path d="M201.8,71.2c0-3,1.5-4.7,3.5-4.7c2,0,3.5,1.7,3.5,4.7c0,3-1.5,4.7-3.5,4.7C203.3,75.9,201.8,74.2,201.8,71.2z
				 M206.9,71.2c0-2-0.7-2.9-1.6-2.9c-0.9,0-1.6,0.8-1.6,2.9c0,2,0.7,2.9,1.6,2.9C206.3,74.1,206.9,73.2,206.9,71.2z"/>
			<path d="M212.8,66.7v9h-1.9v-7.3h-1.6v-1.7H212.8z"/>
			<path d="M220.7,71c0,3.1-1.7,4.8-4.2,4.8c-0.9,0-1.7-0.2-2.3-0.6l0.7-1.5c0.4,0.3,1,0.4,1.5,0.4c1.4,0,2.2-0.9,2.3-2.6
				c-0.5,0.5-1.2,0.8-2,0.8c-1.6,0-2.8-1.1-2.8-2.8c0-1.8,1.4-3,3.1-3C219.4,66.6,220.7,68.1,220.7,71z M218.6,69.4
				c0-0.8-0.5-1.3-1.4-1.3c-0.8,0-1.4,0.5-1.4,1.3s0.5,1.3,1.4,1.3C218.1,70.8,218.6,70.2,218.6,69.4z"/>
			<path d="M221.9,71.3h3.3v1.6h-3.3V71.3z"/>
			<path d="M232.1,74v1.7h-6.2v-1.3l3.1-3.3c0.7-0.8,0.9-1.2,0.9-1.7c0-0.7-0.4-1.1-1.3-1.1c-0.7,0-1.3,0.3-1.7,0.9l-1.4-1
				c0.6-1,1.8-1.7,3.2-1.7c1.8,0,3,1,3,2.7c0,0.9-0.2,1.7-1.4,2.8l-1.9,2H232.1z"/>
			<path d="M232.9,71.2c0-3,1.5-4.7,3.5-4.7c2,0,3.5,1.7,3.5,4.7c0,3-1.5,4.7-3.5,4.7C234.4,75.9,232.9,74.2,232.9,71.2z M238,71.2
				c0-2-0.7-2.9-1.6-2.9c-0.9,0-1.6,0.8-1.6,2.9c0,2,0.7,2.9,1.6,2.9C237.3,74.1,238,73.2,238,71.2z"/>
		</g>
	</g>
	<g>
		<path d="M98.9,180.1h-3.8l-0.7,1.9h-1.9l3.6-9h1.9l3.6,9h-2L98.9,180.1z M98.3,178.6l-1.3-3.4l-1.3,3.4H98.3z"/>
		<path d="M109.8,173.1l-3.5,9h-1.9l-3.5-9h2l2.5,6.4l2.5-6.4H109.8z"/>
		<path d="M115.9,177.4h1.7v3.6c-0.9,0.7-2.1,1.1-3.3,1.1c-2.6,0-4.4-1.9-4.4-4.7s1.9-4.7,4.5-4.7c1.4,0,2.6,0.5,3.4,1.6l-1.2,1.2
			c-0.6-0.7-1.3-1-2.1-1c-1.6,0-2.7,1.2-2.7,2.9c0,1.7,1.1,2.9,2.6,2.9c0.5,0,1-0.1,1.5-0.4V177.4z"/>
		<path d="M118.9,177.6c0-2.7,1.9-4.7,4.4-4.7c1.4,0,2.6,0.6,3.4,1.6l-1.2,1.2c-0.5-0.7-1.2-1.1-2-1.1c-1.5,0-2.6,1.2-2.6,2.9
			c0,1.7,1.1,2.9,2.6,2.9c0.8,0,1.5-0.4,2-1.1l1.2,1.2c-0.8,1-1.9,1.6-3.4,1.6C120.8,182.2,118.9,180.3,118.9,177.6z"/>
		<path d="M129.8,180.9c0,0.3,0,0.6-0.3,1.3l-0.7,1.8h-1.2l0.5-2c-0.4-0.2-0.6-0.6-0.6-1.1c0-0.7,0.5-1.2,1.1-1.2
			C129.3,179.7,129.8,180.2,129.8,180.9z"/>
		<path d="M136.1,174.8h-2.6v-1.7h7.1v1.7H138v7.3h-1.9V174.8z"/>
		<path d="M141,177.6c0-2.7,1.9-4.7,4.5-4.7c2.6,0,4.5,2,4.5,4.7c0,2.7-1.9,4.7-4.5,4.7C142.9,182.2,141,180.2,141,177.6z
			 M148,177.6c0-1.7-1.1-2.9-2.5-2.9c-1.5,0-2.5,1.2-2.5,2.9c0,1.7,1.1,2.9,2.5,2.9C146.9,180.4,148,179.3,148,177.6z"/>
		<path d="M151.3,178.1v-5h1.9v5c0,1.7,0.7,2.4,1.8,2.4c1.2,0,1.8-0.7,1.8-2.4v-5h1.9v5c0,2.6-1.4,4.1-3.7,4.1
			C152.6,182.2,151.3,180.8,151.3,178.1z"/>
		<path d="M165.7,182.1l-1.6-2.5H164h-1.6v2.5h-1.9v-9h3.5c2.2,0,3.5,1.2,3.5,3.3c0,1.3-0.6,2.3-1.7,2.8l1.8,2.9H165.7z
			 M163.9,174.8h-1.5v3.1h1.5c1.2,0,1.7-0.6,1.7-1.6C165.7,175.3,165.1,174.8,163.9,174.8z"/>
		<path d="M169.1,173.1h1.9v9h-1.9V173.1z"/>
		<path d="M172.3,181.2l0.6-1.6c0.7,0.6,1.7,0.9,2.7,0.9c1.1,0,1.6-0.4,1.6-1c0-1.7-4.7-0.5-4.7-3.9c0-1.5,1.1-2.8,3.4-2.8
			c1,0,2.1,0.3,2.8,0.8l-0.6,1.6c-0.8-0.5-1.5-0.7-2.3-0.7c-1.1,0-1.5,0.5-1.5,1c0,1.7,4.7,0.5,4.7,3.8c0,1.5-1.1,2.8-3.5,2.8
			C174.3,182.2,173,181.8,172.3,181.2z"/>
		<path d="M187.7,182.1l0-5.4l-2.4,4.4h-0.8l-2.4-4.3v5.3h-1.8v-9h1.6l3.1,5.6l3-5.6h1.5l0,9H187.7z"/>
		<path d="M193.1,180.9c0,0.3,0,0.6-0.3,1.3l-0.7,1.8H191l0.5-2c-0.4-0.2-0.6-0.6-0.6-1.1c0-0.7,0.5-1.2,1.1-1.2
			C192.7,179.7,193.1,180.2,193.1,180.9z"/>
		<path d="M203.2,180.1h-3.8l-0.7,1.9h-1.9l3.6-9h1.9l3.6,9h-2L203.2,180.1z M202.6,178.6l-1.3-3.4l-1.3,3.4H202.6z"/>
		<path d="M212.1,177.4h1.7v3.6c-0.9,0.7-2.1,1.1-3.3,1.1c-2.6,0-4.4-1.9-4.4-4.7s1.9-4.7,4.5-4.7c1.4,0,2.6,0.5,3.4,1.6l-1.2,1.2
			c-0.6-0.7-1.3-1-2.1-1c-1.6,0-2.7,1.2-2.7,2.9c0,1.7,1.1,2.9,2.6,2.9c0.5,0,1-0.1,1.5-0.4V177.4z"/>
		<path d="M220.8,182.1l-1.6-2.5h-0.1h-1.6v2.5h-1.9v-9h3.5c2.2,0,3.5,1.2,3.5,3.3c0,1.3-0.6,2.3-1.7,2.8l1.8,2.9H220.8z M219,174.8
			h-1.5v3.1h1.5c1.2,0,1.7-0.6,1.7-1.6C220.7,175.3,220.2,174.8,219,174.8z"/>
		<path d="M224.1,173.1h1.9v9h-1.9V173.1z"/>
		<path d="M227.5,177.6c0-2.7,1.9-4.7,4.4-4.7c1.4,0,2.6,0.6,3.4,1.6l-1.2,1.2c-0.5-0.7-1.2-1.1-2-1.1c-1.5,0-2.6,1.2-2.6,2.9
			c0,1.7,1.1,2.9,2.6,2.9c0.8,0,1.5-0.4,2-1.1l1.2,1.2c-0.8,1-1.9,1.6-3.4,1.6C229.3,182.2,227.5,180.3,227.5,177.6z"/>
		<path d="M236.4,178.1v-5h1.9v5c0,1.7,0.7,2.4,1.8,2.4c1.2,0,1.8-0.7,1.8-2.4v-5h1.9v5c0,2.6-1.4,4.1-3.7,4.1
			C237.7,182.2,236.4,180.8,236.4,178.1z"/>
		<path d="M245.6,173.1h1.9v7.3h4.1v1.7h-6V173.1z"/>
		<path d="M253.6,174.8H251v-1.7h7.1v1.7h-2.6v7.3h-1.9V174.8z"/>
		<path d="M258.9,178.1v-5h1.9v5c0,1.7,0.7,2.4,1.8,2.4c1.2,0,1.8-0.7,1.8-2.4v-5h1.9v5c0,2.6-1.4,4.1-3.7,4.1
			C260.3,182.2,258.9,180.8,258.9,178.1z"/>
		<path d="M273.3,182.1l-1.6-2.5h-0.1H270v2.5h-1.9v-9h3.5c2.2,0,3.5,1.2,3.5,3.3c0,1.3-0.6,2.3-1.7,2.8l1.8,2.9H273.3z
			 M271.6,174.8H270v3.1h1.5c1.2,0,1.7-0.6,1.7-1.6C273.3,175.3,272.7,174.8,271.6,174.8z"/>
		<path d="M283,180.4v1.7h-6.3v-9h6.2v1.7h-4.3v2h3.8v1.6h-3.8v2.1H283z"/>
		<path d="M286.3,180.9c0,0.3,0,0.6-0.3,1.3l-0.7,1.8h-1.2l0.5-2c-0.4-0.2-0.6-0.6-0.6-1.1c0-0.7,0.5-1.2,1.1-1.2
			C285.9,179.7,286.3,180.2,286.3,180.9z"/>
		<path d="M126.1,194l-1.1,1.3v2.3h-1.9v-9h1.9v4.2l3.6-4.2h2.1l-3.4,4l3.6,5h-2.2L126.1,194z"/>
		<path d="M136.7,195.6h-3.8l-0.7,1.9h-1.9l3.6-9h1.9l3.6,9h-2L136.7,195.6z M136.1,194l-1.3-3.4l-1.3,3.4H136.1z"/>
		<path d="M147.8,188.5v9h-1.5l-4.1-5.5v5.5h-1.9v-9h1.6l4.1,5.5v-5.5H147.8z"/>
		<path d="M157.2,188.5v9h-1.5l-4.1-5.5v5.5h-1.9v-9h1.6l4.1,5.5v-5.5H157.2z"/>
		<path d="M164.5,195.6h-3.8l-0.7,1.9H158l3.6-9h1.9l3.6,9h-2L164.5,195.6z M163.9,194l-1.3-3.4l-1.3,3.4H163.9z"/>
		<path d="M168,188.5h3.7c2.7,0,4.5,1.8,4.5,4.5c0,2.7-1.8,4.5-4.5,4.5H168V188.5z M171.6,195.8c1.6,0,2.7-1.1,2.7-2.8
			c0-1.7-1.1-2.8-2.7-2.8h-1.7v5.6H171.6z"/>
		<path d="M182.9,195.6h-3.8l-0.7,1.9h-1.9l3.6-9h1.9l3.6,9h-2L182.9,195.6z M182.3,194l-1.3-3.4l-1.3,3.4H182.3z"/>
		<path d="M196,197.6l-1-1c-0.7,0.6-1.7,1-2.7,1c-1.8,0-3.1-1-3.1-2.5c0-1.1,0.5-1.9,1.8-2.7c-0.6-0.7-0.8-1.3-0.8-1.9
			c0-1.3,1-2.2,2.5-2.2c1.4,0,2.3,0.8,2.3,2.1c0,0.9-0.5,1.6-1.6,2.3l1.5,1.5c0.2-0.4,0.3-0.9,0.4-1.4l1.5,0.5
			c-0.2,0.8-0.4,1.5-0.7,2l1,1L196,197.6z M194,195.5l-2-2c-0.7,0.5-1,0.9-1,1.4c0,0.7,0.6,1.1,1.5,1.1
			C193,196.1,193.5,195.9,194,195.5z M191.8,190.6c0,0.3,0.1,0.6,0.6,1.1c0.8-0.5,1.1-0.8,1.1-1.2c0-0.4-0.3-0.7-0.8-0.7
			C192.1,189.7,191.8,190.1,191.8,190.6z"/>
		<path d="M201,193c0-2.7,1.9-4.7,4.4-4.7c1.4,0,2.6,0.6,3.4,1.6l-1.2,1.2c-0.5-0.7-1.2-1.1-2-1.1c-1.5,0-2.6,1.2-2.6,2.9
			c0,1.7,1.1,2.9,2.6,2.9c0.8,0,1.5-0.4,2-1.1l1.2,1.2c-0.8,1-1.9,1.6-3.4,1.6C202.9,197.6,201,195.7,201,193z"/>
		<path d="M209.9,193.5v-5h1.9v5c0,1.7,0.7,2.4,1.8,2.4c1.2,0,1.8-0.7,1.8-2.4v-5h1.9v5c0,2.6-1.4,4.1-3.7,4.1
			C211.3,197.6,209.9,196.2,209.9,193.5z"/>
		<path d="M219.2,188.5h1.9v7.3h4.1v1.7h-6V188.5z"/>
		<path d="M227.2,190.2h-2.6v-1.7h7.1v1.7H229v7.3h-1.9V190.2z"/>
		<path d="M232.5,193.5v-5h1.9v5c0,1.7,0.7,2.4,1.8,2.4c1.2,0,1.8-0.7,1.8-2.4v-5h1.9v5c0,2.6-1.4,4.1-3.7,4.1
			C233.8,197.6,232.5,196.2,232.5,193.5z"/>
		<path d="M246.9,197.5l-1.6-2.5h-0.1h-1.6v2.5h-1.9v-9h3.5c2.2,0,3.5,1.2,3.5,3.3c0,1.3-0.6,2.3-1.7,2.8l1.8,2.9H246.9z
			 M245.1,190.2h-1.5v3.1h1.5c1.2,0,1.7-0.6,1.7-1.6C246.9,190.8,246.3,190.2,245.1,190.2z"/>
		<path d="M256.6,195.8v1.7h-6.3v-9h6.2v1.7h-4.3v2h3.8v1.6h-3.8v2.1H256.6z"/>
	</g>
</g>
</svg>