<?xml version="1.0" encoding="utf-8"?>
<!-- Generator: Adobe Illustrator 28.7.1, SVG Export Plug-In . SVG Version: 9.03 Build 54978)  -->
<svg version="1.1" id="Layer_1" xmlns="http://www.w3.org/2000/svg" xmlns:xlink="http://www.w3.org/1999/xlink" x="0px" y="0px"
	 viewBox="0 0 379.1 289.5" style="enable-background:new 0 0 379.1 289.5;" xml:space="preserve">
<style type="text/css">
	.st0{fill:#D6895D;}
	.st1{fill:#94B8FF;}
	.st2{fill:#4C4C4C;}
	.st3{fill:#002060;}
	.st4{fill:#969696;}
	.st5{fill:#FFFFFF;}
</style>
<g>
	<g>
		<g>
			<path class="st0" d="M180.8,267c-1.4,0.1-2.8,0.4-4.2,0.4c-64.4-1.1-122.2-50.1-133.7-114c-7.4-40.8,0.8-78.4,25.7-112
				c1.4-1.9,2.5-4.3,3.1-6.6c4.2-15.2,13.1-26.1,28.5-30.7c6.3-1.9,13-2.6,20.7-4.1C109,16.4,97.6,31.2,79,38.4
				c-3.4,1.3-6.8,4.2-9,7.2c-60.5,83-11.4,200.9,90,216.6c5.7,0.9,11.6,1.2,17.4,1.9c1.3,0.2,2.5,0.7,3.8,1
				C181,265.8,180.9,266.4,180.8,267z"/>
			<path class="st0" d="M259.3,0.8c21.1,0.9,38.8,6.8,46.5,27.4c3.2,8.4,7.7,15.6,12.4,23c37.9,59.7,25,139.1-29.9,184.1
				c-24.5,20.1-52.7,30.7-84.4,31.9c-1.6,0.1-3.3-0.4-4.9-0.6c0-0.5-0.1-1.1-0.1-1.6c1.6-0.4,3.1-1,4.7-1
				c90.9-4.5,140.9-84.6,132-154.1c-3.2-24.8-12.3-47.3-27.5-67.2c-1.3-1.7-3.5-3.1-5.5-3.9c-13.4-5.4-24.8-13.5-33.2-25.5
				C266.5,9.3,263.1,5.5,259.3,0.8z"/>
			<path class="st0" d="M364.9,56.3c2.1,13.3,5.7,26.4,1.8,39.8c-3.3,11.3-12.4,18.9-22.3,18.9C342.6,92.5,345.8,71.9,364.9,56.3z"
				/>
			<path class="st0" d="M151.5,269.7c-2.4,10.8-11.3,18.4-23.9,19.6c-13.1,1.3-25.1-3.4-37.6-7.3C108.5,267.2,129.7,263,151.5,269.7
				z"/>
			<path class="st0" d="M40.4,240.7c23.8-10.3,43.4-3.2,62.8,9c-3.1,5.3-7.6,8.3-13.1,10c-7.3,2.1-14.8,2-21.4-1.6
				C59.2,253.1,50.3,246.9,40.4,240.7z"/>
			<path class="st0" d="M48.5,64.5C38.4,59.4,33,47.7,35.2,35.6c2.2-12.4,9-22.7,15.3-33.3C61.1,18.5,60.2,46.7,48.5,64.5z"/>
			<path class="st0" d="M10.2,183.6c25-1,40.9,12.6,54.4,30.5c-8.3,6.6-20.8,6.9-30.3-0.4c-5.8-4.5-10.5-10.5-15.2-16.3
				C15.7,193.2,13.2,188.3,10.2,183.6z"/>
			<path class="st0" d="M339.3,239.7c-11.3,8.6-21.1,17.9-34.7,20.6c-8.9,1.8-17.3,0.2-24.2-6.1c-1.3-1.2-2.3-2.7-3.4-4.1
				C294.8,236.3,312.9,233.3,339.3,239.7z"/>
			<path class="st0" d="M369.8,183.5c-6.6,10.7-12.4,21.9-22.7,29.5c-7.4,5.5-15.9,7.6-25,4.9c-2.3-0.7-4.4-2-7-3.3
				C329.1,196,345.1,182.6,369.8,183.5z"/>
			<path class="st0" d="M331,64.5c-9.5-20.7-13.9-41.2-1.4-62.5c6.4,11.5,14,22.2,15.5,35.8C346.3,49.5,340.7,60.3,331,64.5z"/>
			<path class="st0" d="M379.1,119.5c-3.5,14.4-4.1,29.8-15.7,41.1c-6.7,6.5-14.6,9.5-24.6,6.9C345.5,145.8,355.2,127.1,379.1,119.5
				z"/>
			<path class="st0" d="M228.7,269.4c22.2-4.6,43-4.2,60.9,12.8c-13,3.9-25.7,9.1-39.7,6.7C238.5,287,230,279.1,228.7,269.4z"/>
			<path class="st0" d="M0,119.2c24.8,8,34.6,26.4,41.6,49.3c-5.2-0.4-9.7-0.1-13.8-1.2c-8.2-2.3-14.7-7.8-17.8-15.7
				C6.1,141.3,3.4,130.6,0,119.2z"/>
			<path class="st0" d="M35.3,115.4c-8-0.7-13.6-4.8-17.8-11c-4.1-5.9-6.2-12.6-5.7-19.8c0.7-9.4,1.8-18.8,2.8-28.6
				C30.5,66.9,39.5,93.3,35.3,115.4z"/>
			<path class="st0" d="M269.6,238.6c-9.9-18.1-2.8-33.8,5.8-49.1C290.7,205,290.4,224.5,269.6,238.6z"/>
			<path class="st0" d="M292.7,157.9c24.5,13,23.4,32.6,11.9,48.4C289,193.1,290.4,175.8,292.7,157.9z"/>
			<path class="st0" d="M49,116.5c2.7-24.9,18.8-33.9,40.5-28.3C80,103.1,69.6,116.6,49,116.5z"/>
			<path class="st0" d="M60.8,70.4C72,49.3,89.7,44.6,109.2,58.3C94.9,68.8,80.2,77.8,60.8,70.4z"/>
			<path class="st0" d="M319,70.5c-19.1,7.3-33.7-1.6-47.9-12C288.5,45.2,308.1,48.2,319,70.5z"/>
			<path class="st0" d="M297.8,122.4c24.6,5.3,36.1,22.3,28,41.3C306.6,156.8,301.7,140.2,297.8,122.4z"/>
			<path class="st0" d="M131.5,212c18.7,16.7,25,25.6,22.9,43.9C134.5,255.6,124,235.7,131.5,212z"/>
			<path class="st0" d="M87.2,157.9c2.5,17.9,3.8,35.1-11.8,48.4C64.8,192.1,61.6,171.6,87.2,157.9z"/>
			<path class="st0" d="M248.5,212.2c9.8,26-4.4,40.2-23,44.1C222.6,236.1,234.9,224,248.5,212.2z"/>
			<path class="st0" d="M290.4,88c23.2-5.4,37.9,4.4,40.6,27.7C319.3,119.5,301.3,107.2,290.4,88z"/>
			<path class="st0" d="M54.1,163.4c-8.2-18.4,3.7-36,27.7-40.9C82,140.1,68.6,159.9,54.1,163.4z"/>
			<path class="st0" d="M104.3,188.8c8.7,15.8,15.8,31.5,6.4,49.2C92.4,232.2,89.3,208.6,104.3,188.8z"/>
		</g>
	</g>
	<path class="st1" d="M213.2,81c-19.7,0-35.6,16-35.6,35.6s16,35.6,35.6,35.6s35.6-16,35.6-35.6S232.9,81,213.2,81z M209.3,141
		c-15.6,0-28.2-12.6-28.2-28.2s12.6-28.2,28.2-28.2s28.2,12.6,28.2,28.2S224.9,141,209.3,141z"/>
	<path class="st1" d="M213.2,81c-19.7,0-35.6,16-35.6,35.6s16,35.6,35.6,35.6s35.6-16,35.6-35.6S232.9,81,213.2,81z M209.3,141
		c-15.6,0-28.2-12.6-28.2-28.2s12.6-28.2,28.2-28.2s28.2,12.6,28.2,28.2S224.9,141,209.3,141z"/>
	<path class="st2" d="M177.6,66.6c0.3,19.7,16.5,35.4,36.2,35.1c19.7-0.3,35.4-16.5,35.1-36.2s-16.5-35.4-36.2-35.1
		C193,30.7,177.3,46.9,177.6,66.6z M237.6,69.6c0.2,15.6-12.2,28.4-27.8,28.7c-15.6,0.2-28.4-12.2-28.7-27.8s12.2-28.4,27.8-28.7
		C224.6,41.5,237.4,54,237.6,69.6z"/>
	<circle class="st2" cx="219.4" cy="62.8" r="11.7"/>
	<path class="st3" d="M163.2,102.7c19.7,0,35.6-16,35.6-35.6s-16-35.6-35.6-35.6s-35.6,16-35.6,35.6S143.5,102.7,163.2,102.7z
		 M167.1,42.7c15.6,0,28.2,12.6,28.2,28.2s-12.6,28.2-28.2,28.2s-28.2-12.6-28.2-28.2S151.5,42.7,167.1,42.7z"/>
	<path class="st4" d="M198.8,117.2c-0.3-19.7-16.5-35.4-36.2-35.1c-19.7,0.3-35.4,16.5-35.1,36.2c0.3,19.7,16.5,35.4,36.2,35.1
		C183.4,153.1,199.1,136.9,198.8,117.2z M138.8,114.1c-0.2-15.6,12.2-28.4,27.8-28.7c15.6-0.2,28.4,12.2,28.7,27.8
		c0.2,15.6-12.2,28.4-27.8,28.7C151.8,142.2,139,129.7,138.8,114.1z"/>
	<circle class="st3" cx="159.9" cy="60.3" r="11.7"/>
	<circle class="st4" cx="156.5" cy="121.4" r="11.7"/>
	<path class="st1" d="M213.2,81c-19.7,0-35.6,16-35.6,35.6s16,35.6,35.6,35.6s35.6-16,35.6-35.6S232.9,81,213.2,81z M209.3,141
		c-15.6,0-28.2-12.6-28.2-28.2s12.6-28.2,28.2-28.2s28.2,12.6,28.2,28.2S224.9,141,209.3,141z"/>
	<circle class="st1" cx="217.3" cy="123.2" r="11.7"/>
	<circle class="st5" cx="187.9" cy="92.2" r="5.9"/>
	<g>
		<path class="st4" d="M117.9,164.4h1.8v12.8h-1.8V164.4z"/>
		<path class="st4" d="M134.2,164.4v12.8h-1.5l-7.7-9.5v9.5h-1.8v-12.8h1.5l7.7,9.5v-9.5H134.2z"/>
		<path class="st4" d="M140.2,166h-4.4v-1.6h10.6v1.6H142v11.2h-1.8V166z"/>
		<path class="st4" d="M157.3,175.6v1.6H148v-12.8h9v1.6h-7.2v3.9h6.4v1.6h-6.4v4.1H157.3z"/>
		<path class="st4" d="M168.4,177.2l-2.8-3.9c-0.3,0-0.5,0-0.8,0h-3.2v3.9h-1.8v-12.8h5c3.3,0,5.3,1.7,5.3,4.5c0,2-1,3.4-2.8,4
			l3,4.3H168.4z M168.4,168.9c0-1.8-1.2-2.9-3.6-2.9h-3.1v5.7h3.1C167.1,171.8,168.4,170.7,168.4,168.9z"/>
		<path class="st4" d="M183.8,164.4v12.8h-1.5l-7.7-9.5v9.5h-1.8v-12.8h1.5l7.7,9.5v-9.5H183.8z"/>
		<path class="st4" d="M195.4,174h-6.8l-1.4,3.2h-1.9l5.8-12.8h1.8l5.8,12.8h-1.9L195.4,174z M194.7,172.6l-2.8-6.3l-2.8,6.3H194.7z
			"/>
		<path class="st4" d="M202.1,166h-4.4v-1.6h10.6v1.6h-4.4v11.2h-1.8L202.1,166L202.1,166z"/>
		<path class="st4" d="M209.9,164.4h1.8v12.8h-1.8V164.4z"/>
		<path class="st4" d="M214.2,170.8c0-3.7,2.9-6.5,6.8-6.5s6.8,2.8,6.8,6.5c0,3.8-2.9,6.5-6.8,6.5
			C217.1,177.4,214.2,174.6,214.2,170.8z M225.9,170.8c0-2.8-2.1-4.9-4.9-4.9c-2.9,0-5,2.1-5,4.9s2.1,4.9,5,4.9
			C223.8,175.7,225.9,173.7,225.9,170.8z"/>
		<path class="st4" d="M241.2,164.4v12.8h-1.5l-7.7-9.5v9.5h-1.8v-12.8h1.5l7.7,9.5v-9.5H241.2z"/>
		<path class="st4" d="M252.8,174H246l-1.4,3.2h-1.9l5.8-12.8h1.8l5.8,12.8h-1.9L252.8,174z M252.1,172.6l-2.8-6.3l-2.8,6.3H252.1z"
			/>
		<path class="st4" d="M257.6,164.4h1.8v11.2h6.9v1.6h-8.7L257.6,164.4L257.6,164.4z"/>
		<path class="st4" d="M119.6,183.9h-4.4v-1.6h10.6v1.6h-4.4v11.2h-1.8L119.6,183.9L119.6,183.9z"/>
		<path class="st4" d="M135.9,195.1l-2.8-3.9c-0.3,0-0.5,0-0.8,0h-3.2v3.9h-1.8v-12.8h5c3.3,0,5.3,1.7,5.3,4.5c0,2-1,3.4-2.8,4
			l3,4.3H135.9z M135.8,186.8c0-1.8-1.2-2.9-3.6-2.9h-3.1v5.7h3.1C134.6,189.7,135.8,188.6,135.8,186.8z"/>
		<path class="st4" d="M148.4,191.9h-6.8l-1.4,3.2h-1.9l5.8-12.8h1.8l5.8,12.8h-1.9L148.4,191.9z M147.8,190.5l-2.8-6.3l-2.8,6.3
			H147.8z"/>
		<path class="st4" d="M153.3,182.3h5.4c4.1,0,6.9,2.6,6.9,6.4s-2.8,6.4-6.9,6.4h-5.4V182.3z M158.5,193.5c3.2,0,5.2-1.9,5.2-4.8
			s-2-4.8-5.2-4.8h-3.4v9.6L158.5,193.5L158.5,193.5z"/>
		<path class="st4" d="M177.2,193.5v1.6H168v-12.8h9v1.6h-7.2v3.9h6.4v1.6h-6.4v4.1L177.2,193.5L177.2,193.5z"/>
		<path class="st4" d="M183.3,188.7c0-3.8,2.9-6.5,6.8-6.5c2,0,3.7,0.7,4.9,2l-1.2,1.2c-1-1-2.2-1.5-3.6-1.5c-2.9,0-5,2.1-5,4.9
			s2.1,4.9,5,4.9c1.4,0,2.6-0.5,3.6-1.5l1.2,1.1c-1.2,1.3-2.9,2-4.9,2C186.2,195.3,183.3,192.5,183.3,188.7z"/>
		<path class="st4" d="M195.9,188.7c0-3.7,2.9-6.5,6.8-6.5s6.8,2.8,6.8,6.5c0,3.8-2.9,6.5-6.8,6.5
			C198.8,195.3,195.9,192.5,195.9,188.7z M207.6,188.7c0-2.8-2.1-4.9-4.9-4.9c-2.9,0-5,2.1-5,4.9s2.1,4.9,5,4.9
			C205.5,193.6,207.6,191.6,207.6,188.7z"/>
		<path class="st4" d="M211.8,189.6v-7.3h1.8v7.2c0,2.8,1.3,4.1,3.6,4.1c2.3,0,3.6-1.3,3.6-4.1v-7.2h1.8v7.3c0,3.7-2,5.7-5.4,5.7
			C213.8,195.3,211.8,193.3,211.8,189.6z"/>
		<path class="st4" d="M236.9,182.3v12.8h-1.5l-7.7-9.5v9.5H226v-12.8h1.5l7.7,9.5v-9.5H236.9z"/>
		<path class="st4" d="M239.4,188.7c0-3.8,2.9-6.5,6.8-6.5c2,0,3.7,0.7,4.9,2l-1.2,1.2c-1-1-2.2-1.5-3.6-1.5c-2.9,0-5,2.1-5,4.9
			s2.1,4.9,5,4.9c1.4,0,2.6-0.5,3.6-1.5l1.2,1.1c-1.2,1.3-2.9,2-4.9,2C242.3,195.3,239.4,192.5,239.4,188.7z"/>
		<path class="st4" d="M253.2,182.3h1.8v12.8h-1.8V182.3z"/>
		<path class="st4" d="M258.5,182.3h1.8v11.2h6.9v1.6h-8.7L258.5,182.3L258.5,182.3z"/>
	</g>
</g>
</svg>