<?xml version="1.0" encoding="utf-8"?>
<!-- Generator: Adobe Illustrator 28.7.1, SVG Export Plug-In . SVG Version: 9.03 Build 54978)  -->
<svg version="1.1" id="Capa_1" xmlns="http://www.w3.org/2000/svg" xmlns:xlink="http://www.w3.org/1999/xlink" x="0px" y="0px"
	 viewBox="0 0 231 231.1" style="enable-background:new 0 0 231 231.1;fill: #051905;" xml:space="preserve">
<style type="text/css">
	<!-- .st0{fill:#0A66C2;} -->
</style>
<g>
	<g>
		<g>
			<path class="st0" d="M51.2,231.1c-11.8,0-22.1-3.2-30.8-9.7c-10.9-8.1-17.5-18.8-19.6-31.9C0.3,186.3,0,183,0,179.2
				c0-41.3,0-81.2,0-129C0,25.7,16.8,5.4,40.8,0.8c3.4-0.7,6.9-0.7,9.5-0.8c16.6,0,33.2,0,49.9,0l10.1,0l25.3,0
				c15.3,0,30.6,0,45.9,0c20.1,0,38.1,12,45.9,30.5c2.5,6,3.8,12.6,3.8,19.4c0,19.6,0,39.2,0,58.7c0,24.3,0,48.6,0,72.9
				c0,24.3-17.5,44.8-41.5,48.7c-3.1,0.5-6.2,0.8-9.1,0.8c-24.2,0-48.4,0-72.7,0C88.9,231,70.1,231,51.2,231.1
				C51.2,231.1,51.2,231.1,51.2,231.1z M84.6,11.6c-11.4,0-22.9,0-34.3,0c-2.2,0-4.9,0.1-7.3,0.5c-18.4,3.5-31.3,19.2-31.3,38
				c0,47.8,0,87.7,0,129c0,3.1,0.2,5.9,0.6,8.4c1.7,10.2,6.6,18.2,15.1,24.5c6.7,5,14.5,7.4,23.9,7.4c0,0,0,0,0,0
				c18.8,0,37.7,0,56.5,0c24.2,0,48.4,0,72.6,0c2.3,0,4.8-0.2,7.3-0.6c18.4-2.9,31.7-18.6,31.7-37.2c0-24.3,0-48.6,0-72.9
				c0-19.6,0-39.2,0-58.7c0-5.4-0.9-10.3-2.9-14.9c-6-14.2-19.8-23.4-35.2-23.4c-15.3,0-30.6,0-45.9,0l-19.8,0l-15.5,0
				C94.9,11.6,89.7,11.6,84.6,11.6z"/>
		</g>
	</g>
	<path class="st0" d="M118.5,103.7c5.4-7,12-11.3,20.3-12c8.4-0.7,16.8-1.2,24.5,3.4c9.7,5.7,14.9,14.3,15,25.4
		c0.3,18.5,0.1,37,0.1,55.5c0,1.8-0.7,2.3-2.3,2.2c-7.1-0.1-14.2-0.1-21.3,0c-1.7,0-2.1-0.6-2.1-2.2c0-14.3,0-28.6,0-42.9
		c0-3.5-0.6-6.8-2.3-10c-5.6-10.4-20.6-11.3-28.2-1.8c-2.6,3.3-3.9,7-3.9,11.2c0,14.4,0,28.9,0,43.3c0,1.9-0.6,2.3-2.4,2.3
		c-7-0.1-14-0.1-21.1,0c-1.7,0-2.3-0.4-2.3-2.2c0.1-27.1,0.1-54.2,0-81.3c0-1.9,0.5-2.5,2.4-2.5c7,0.1,13.9,0.1,20.9,0
		c2,0,2.5,0.6,2.4,2.5C118.4,97.6,118.5,100.4,118.5,103.7z"/>
	<path class="st0" d="M78.3,135.3c0,13.6,0,27.2,0,40.7c0,1.9-0.5,2.4-2.3,2.3c-7.1-0.1-14.2-0.1-21.3,0c-1.7,0-2.4-0.4-2.4-2.3
		c0.1-27.2,0-54.3,0-81.5c0-1.6,0.4-2.2,2.1-2.2c7.3,0.1,14.6,0.1,21.9,0c1.8,0,2.1,0.7,2.1,2.2C78.3,108.1,78.3,121.7,78.3,135.3z"
		/>
	<path class="st0" d="M80.8,64.7c0,8.5-7,15.7-15.4,15.7c-8.4,0.1-15.4-7.1-15.4-15.7c0-8.6,6.9-15.7,15.2-15.7
		C73.8,49.1,80.8,56.1,80.8,64.7z"/>
</g>
</svg>