<?xml version="1.0" encoding="utf-8"?>
<!-- Generator: Adobe Illustrator 28.7.1, SVG Export Plug-In . SVG Version: 9.03 Build 54978)  -->
<svg version="1.1" id="Layer_1" xmlns="http://www.w3.org/2000/svg" xmlns:xlink="http://www.w3.org/1999/xlink" x="0px" y="0px"
	 viewBox="0 0 308.5 226.2" style="enable-background:new 0 0 308.5 226.2;" xml:space="preserve">
<style type="text/css">
	.st0{fill:#1A6135;}
	.st1{fill:#FFFFFF;}
</style>
<g>
	<path class="st0" d="M291.2,40L291.2,40C291.2,40,291.2,40,291.2,40C291.2,40,291.2,39.9,291.2,40L291.2,40
		C187-37.5-8.9-4.3,3.9,157.3l0,0c0,0,0,0,0,0c0,0,0,0,0,0l0,0C108.1,234.8,304,201.6,291.2,40z"/>
	<path class="st0" d="M55.7,132.4c-1.6,0-2.8-0.7-4.1-1.4c-2.3-1.3-6.2-3.5-16.8-3.5c-4.6,0-8.8,0.5-11.6,0.8
		c-1.6,0.2-2.6,0.3-3.3,0.3c-3.1,0-5.2-1.9-5.2-5c0-5.1,3.1-15.8,6.9-26.7c-0.5,0.2-1.1,0.3-1.8,0.3C15,97.1,0,89,0,75
		c0-8.8,8.6-16.2,18.7-16.2c6.8,0,12.3,1.8,17.3,3.8C42.6,52,52.3,46.4,64.2,46.4c12.7,0,21.6,6.9,21.6,16.9
		c0,12-10.9,20.4-26.6,20.4c-3.1,0-5.9-0.2-8.6-0.6c-4.7,11.8-9.2,24-10.6,28.7c1.4-0.3,3.4-0.7,5.3-1.1c7-1.5,15.7-3.5,20.6-3.5
		c3.7,0,5.4,2.2,5.4,4.4c0,1.6-0.7,2.7-1.7,4c-2.8,3.6-7,9.7-9.7,14.2l-0.1,0.1l-0.1,0.1C59.3,130.7,58.1,132.4,55.7,132.4z
		 M28.2,79.2c-7.2,0.4-7.2,4-7.2,5.4c0,2.6,1.1,4.4,1.9,5.7c0.2,0.4,0.4,0.7,0.6,1.1C25.1,87.1,26.7,82.9,28.2,79.2z M56.6,69.2
		c0.6,0,1.1,0,1.8,0c4.6,0,7.5-4.6,7.5-7c0-2-0.7-2-1.6-2C63.3,60.2,60.7,61.2,56.6,69.2z"/>
	<path class="st1" d="M37.1,66.1c6-10.9,15-17,27-17c10,0,18.8,4.9,18.8,14.1C83,75,71.5,80.9,59.1,80.9c-4.1,0-7.4-0.3-10.3-0.9
		c-5.2,12.8-12,31.3-12,33.6c0,0.9,0.3,1.4,1.3,1.4c2.5,0,20.5-4.9,27.8-4.9c1.9,0,2.6,0.8,2.6,1.6c0,0.7-0.2,1.1-1.1,2.4
		c-2.6,3.4-7,9.6-9.9,14.4c-0.6,0.8-1,1.1-1.8,1.1c-3,0-4.7-4.9-21-4.9c-7.1,0-13.2,1-14.9,1c-1.7,0-2.4-0.8-2.4-2.2
		c0-8,8.6-32.2,14.9-47.1c-0.9,0-1.8-0.1-2.7-0.1c-8,0-11.3,3.3-11.3,8.2c0,4.9,3,7.6,3,8.6c0,0.8-0.5,1.1-1.5,1.1
		c-3.6,0-17-7-17-19.4c0-7.3,7.3-13.4,15.9-13.4C25.9,61.6,31.6,63.7,37.1,66.1z M52.4,71.5c1.8,0.3,3.9,0.5,6,0.5
		c6.2,0,10.3-5.8,10.3-9.7c0-3.3-1.7-4.8-4.4-4.8C61,57.4,57.2,60.9,52.4,71.5z"/>
	<path class="st0" d="M111.9,128.5c-7.6,0-12-3.7-14.1-5.8c0,0-0.1,0.1-0.1,0.1c-2.8,1.9-8.6,5.8-17.1,5.8
		c-7.5,0-12.3-5.1-12.3-13.1c0-16,15.6-33.8,36.6-33.8c10.4,0,19.7,6.2,19.7,11.1c0,1.3-0.7,2.7-2.1,5c-2.6,4.5-6.8,12-6.8,21.4
		c0,1.7,0.2,2.3,0.4,2.9c0.2,0.6,0.4,1.3,0.4,2.2C116.4,126.4,114.8,128.5,111.9,128.5z M101.8,95.3C97.2,97.5,91,106,90.4,111.7
		C93.7,110.2,99.8,100.2,101.8,95.3z"/>
	<path class="st1" d="M111.9,125.7c-9.3,0-12.9-6.4-13.7-6.4c-1.4,0-7.2,6.4-17.6,6.4c-5.8,0-9.5-3.9-9.5-10.3
		c0-14.9,15.1-31,33.8-31c9.9,0,17,5.7,17,8.4c0,2.2-8.9,12.4-8.9,26.5c0,3.4,0.8,3.8,0.8,5.2C113.6,125.2,113,125.7,111.9,125.7z
		 M87.6,112.7c0,1.1,0.7,2.1,2.1,2.1c6.1,0,15.6-18.7,15.6-21.2c0-1-0.5-1.5-1.4-1.5C96.9,92,87.6,105.2,87.6,112.7z"/>
	<path class="st0" d="M132.3,129.2c-11.3,0-18.2-6.4-18.2-16.6c0-14.8,17.8-31,34.1-31c14.7,0,15.8,8.9,15.8,11.6
		c0,8.2-9.1,14.3-17.3,14.3c-2.6,0-4.6-1.8-4.6-4c0-1.7,0.8-2.8,1.7-4c0.2-0.3,0.5-0.7,0.9-1.2c1.1-1.5,1.7-2.7,2-3.6
		c-3.2,1.4-7.7,8.8-7.7,14.2c0,3.1,1,3.6,3.4,3.6c4.2,0,6.7-2,8.6-3.4c1.3-1,2.4-1.9,3.9-1.9c2.4,0,4.5,2.2,4.5,4.7
		C159.3,116.1,149.4,129.2,132.3,129.2z"/>
	<path class="st1" d="M132.3,126.4c-10.1,0-15.5-5.4-15.5-13.9c0-13.2,16.3-28.2,31.3-28.2c9.1,0,13.1,3.8,13.1,8.8
		c0,6.8-8.1,11.6-14.6,11.6c-1,0-1.8-0.6-1.8-1.3c0-1,0.7-1.6,2.1-3.6c1.3-1.7,2.7-4.2,2.7-6.2c0-1.4-0.7-2.1-2.1-2.1
		c-5.2,0-11.3,10.4-11.3,17.2c0,4.6,2.2,6.4,6.2,6.4c7.6,0,10.8-5.3,12.5-5.3c0.8,0,1.7,0.9,1.7,1.9
		C156.6,114,148.4,126.4,132.3,126.4z"/>
	<path class="st0" d="M199,144c-11.4,0-20.1-7.9-20.1-18.4c0-9.2,4.4-17.3,7.6-23.3c0.9-1.8,2.1-3.8,2.6-5.2
		c-1.7,0.5-4.6,2.1-6.8,5.8c-3.5,5.9-7.4,17-7.4,20c0,4.8-3.1,5.5-5,5.5c-7.5,0-15.6-2.2-15.6-8.3c0-4,4.1-13.9,10.7-29.8
		c5.1-12.2,11.5-27.4,11.5-31.3c0-2.2,1.6-4.7,6-4.7c7.4,0,14,6.2,14,11.1c0,3.5-2.9,10.2-6.6,18.7c0,0,0,0.1,0,0.1
		c3.1-1.4,7-2.7,11-2.7c7,0,11.6,4.1,11.6,10.3c0,4.2-2.1,8.6-4.4,13.2c-2.5,5.1-5,10.5-5,15.9c0,4.6,2.9,7.4,7.8,7.4
		c1.8,0,3-0.4,3.9-0.7c0.7-0.3,1.4-0.5,2.3-0.5c2.3,0,4.1,1.8,4.1,4.1C221.2,135.7,212.6,144,199,144z"/>
	<path class="st1" d="M200.4,121c0,5.7,3.7,10.2,10.5,10.2c3.6,0,5.2-1.3,6.2-1.3c0.8,0,1.4,0.6,1.4,1.4c0,2.3-7.1,9.9-19.5,9.9
		c-9.5,0-17.3-6.3-17.3-15.6c0-13.4,10.5-25.1,10.5-29.7c0-1-0.7-1.8-1.8-1.8c-2.2,0-7.1,1.7-10.4,7.4c-3.6,6-7.8,17.5-7.8,21.4
		c0,1.7-0.3,2.7-2.2,2.7c-5.4,0-12.8-1.4-12.8-5.5c0-7.6,22.2-52.5,22.2-61.2c0-1.1,1-1.9,3.2-1.9c6,0,11.2,5.2,11.2,8.4
		c0,4.9-8.9,22.5-8.9,23.9c0,0.2,0.1,0.3,0.3,0.3c0.5,0,8.4-5.4,15.7-5.4c5.7,0,8.8,3,8.8,7.6C209.8,99.7,200.4,109.9,200.4,121z"/>
	<path class="st0" d="M220.9,128.7c-10.1,0-17.1-6.5-17.1-15.8c0-15.8,16.8-31.3,33.9-31.3c10.4,0,15,5.9,15,11.8
		c0,5.5-4.1,10.2-9.5,13.9c0.1,0,0.2,0,0.4,0c2.5,0,4.6,2.2,4.6,4.7C248.2,116,240,128.7,220.9,128.7z M238.9,109.8
		c-2.1,1.1-4.3,2-6.5,2.7C235.4,112.2,237.4,110.9,238.9,109.8z M235.7,95.2c-1.3,0.7-3,2.1-4.5,4.1
		C233.4,97.9,234.9,96.4,235.7,95.2z"/>
	<path class="st1" d="M243.6,110c0.9,0,1.8,0.9,1.8,1.9c0,2.1-6.5,14-24.5,14c-7.8,0-14.3-4.7-14.3-13.1c0-14.2,15.5-28.5,31.2-28.5
		c8.8,0,12.3,4.6,12.3,9.1c0,8.8-14.4,16.2-24.7,18.1c0.7,2.4,2.5,3.8,5.8,3.8C238.9,115.3,241.8,110,243.6,110z M225.3,105
		c7.4-2.1,13.6-7.4,13.6-11c0-1.4-0.8-1.9-1.9-1.9C233.4,92,227.2,98,225.3,105z"/>
	<path class="st0" d="M259.2,128.5c-7.5,0-15.6-2.2-15.6-8.3c0-4.6,2.6-10.7,5.3-17.2c2.6-6.2,5.3-12.6,5.3-16.7
		c0-2.2,1.6-4.7,6-4.7c5.5,0,9.4,1.8,11.6,5.5c2.8-2.4,7.3-5.5,13-5.5c5.2,0,8.6,3.4,8.6,8.6c0,7.3-8.5,16.9-13.5,16.9
		c-2.3,0-3.9-1.2-4.5-3.4c-0.2-0.6-0.3-1.2-0.4-1.8c-0.1-0.5-0.2-1.4-0.4-1.9c-0.5,0.3-1.5,1.2-2.6,3c-3.8,6.1-7.6,17.3-7.6,20.1
		C264.1,127.8,261,128.5,259.2,128.5z"/>
	<path class="st1" d="M284.6,84.4c3.6,0,5.8,2.1,5.8,5.8c0,6-7.4,14.1-10.8,14.1c-1.1,0-1.6-0.5-1.8-1.4c-0.6-1.8-0.5-6-3.2-6
		c-1.3,0-3.3,1.3-5.3,4.5c-3.8,6.1-8,17.9-8,21.5c0,1.7-0.3,2.7-2.2,2.7c-5.4,0-12.8-1.4-12.8-5.5c0-8.2,10.5-24.7,10.5-33.9
		c0-1.1,1-1.9,3.2-1.9c10.2,0,10.1,7.3,10.5,7.3C271.1,91.7,276.8,84.4,284.6,84.4z"/>
	<g>
		<g>
			<path class="st0" d="M20.1,224.4c-1,0.6-2.1,1.1-3.3,1.4c-1.2,0.3-2.4,0.4-3.8,0.4c-1.4,0-2.7-0.2-3.8-0.7s-2.2-1.2-3-2
				c-0.9-0.9-1.5-1.9-2-3s-0.7-2.4-0.7-3.8c0-1.3,0.2-2.5,0.6-3.6c0.4-1.1,1-2.1,1.8-2.9c0.8-0.8,1.7-1.5,2.8-1.9
				c1.1-0.5,2.3-0.7,3.6-0.7c1.7,0,3,0.2,4.1,0.7c1.1,0.4,1.8,0.9,2.3,1.5c0.2,0.2,0.3,0.5,0.4,0.8c0.1,0.3,0.2,0.6,0.2,0.9
				c0,0.3,0.1,0.7,0.1,1c0,0.3,0,0.7,0,1h-0.8c-0.3-1.6-1-2.8-1.9-3.6c-0.9-0.7-2.1-1.1-3.7-1.1c-1.1,0-2,0.2-2.7,0.7
				c-0.7,0.4-1.3,1-1.8,1.7c-0.5,0.7-0.8,1.6-1,2.5c-0.2,0.9-0.3,1.9-0.3,2.9c0,1.6,0.2,3,0.5,4.1c0.3,1.1,0.7,2,1.3,2.6
				c0.5,0.7,1.2,1.1,1.9,1.4c0.7,0.3,1.5,0.4,2.3,0.4c0.8,0,1.5-0.1,2-0.2c0.6-0.1,1.1-0.3,1.5-0.5l0-4.7c0-0.4,0.1-0.7,0.2-1.1
				c0.1-0.4,0.4-0.7,0.7-1c0.4-0.3,0.9-0.6,1.6-0.8c0.7-0.2,1.6-0.3,2.7-0.3v0.7c-0.6,0-1,0.2-1.3,0.7c-0.3,0.4-0.4,1.1-0.4,1.9
				L20.1,224.4z"/>
			<path class="st0" d="M29.9,217.6h-1.1l0,8h-3.5l0-14.1c0-0.8-0.1-1.4-0.3-1.9c-0.2-0.5-0.7-0.7-1.5-0.7h-0.3v-0.8h7.3
				c0.4,0,0.9,0,1.4,0.1c0.5,0,1,0.1,1.6,0.2c0.5,0.1,1.1,0.3,1.6,0.5c0.5,0.2,1,0.5,1.3,0.9c0.4,0.4,0.7,0.8,0.9,1.3
				c0.2,0.5,0.4,1.1,0.4,1.9c0,0.7-0.1,1.3-0.4,1.8c-0.3,0.5-0.6,0.9-1,1.3c-0.4,0.3-0.9,0.6-1.4,0.8s-1,0.4-1.5,0.5l2.8,4.7
				c0.3,0.6,0.7,1,1,1.4c0.3,0.4,0.6,0.7,0.9,0.9c0.3,0.2,0.5,0.4,0.8,0.5c0.2,0.1,0.5,0.2,0.7,0.2v0.7c-0.1,0.1-0.4,0.1-0.8,0.2
				c-0.4,0.1-0.7,0.1-1.1,0.1c-0.5,0-0.9-0.1-1.3-0.2c-0.4-0.1-0.9-0.3-1.3-0.6c-0.4-0.3-0.8-0.7-1.3-1.2c-0.4-0.5-0.8-1.1-1.3-1.8
				L29.9,217.6z M30.6,209.1c-0.2,0-0.4,0-0.6,0c-0.2,0-0.4,0-0.6,0.1c-0.2,0-0.4,0.1-0.5,0.1l0,7.2l1.6,0c0.4,0,0.9-0.1,1.3-0.2
				c0.4-0.1,0.8-0.3,1.2-0.6c0.3-0.3,0.6-0.7,0.8-1.1c0.2-0.5,0.3-1.1,0.3-1.8s-0.1-1.3-0.3-1.7c-0.2-0.5-0.5-0.9-0.8-1.1
				c-0.3-0.3-0.7-0.5-1.1-0.6C31.4,209.2,31,209.1,30.6,209.1z"/>
			<path class="st0" d="M41,216.9c0-1.3,0.2-2.5,0.6-3.7c0.4-1.1,1-2.1,1.8-3c0.8-0.8,1.7-1.5,2.8-2c1.1-0.5,2.3-0.7,3.6-0.7
				s2.5,0.2,3.6,0.7c1.1,0.5,2,1.1,2.8,2c0.8,0.8,1.4,1.8,1.8,3c0.4,1.1,0.6,2.4,0.6,3.7c0,1.3-0.2,2.5-0.6,3.7
				c-0.4,1.1-1,2.1-1.8,3c-0.8,0.8-1.7,1.5-2.8,2c-1.1,0.5-2.3,0.7-3.6,0.7s-2.5-0.2-3.6-0.7c-1.1-0.5-2-1.1-2.8-2
				c-0.8-0.8-1.4-1.8-1.8-3C41.2,219.4,41,218.2,41,216.9z M54.9,216.9c0-2.6-0.4-4.6-1.3-6c-0.9-1.4-2.1-2.1-3.8-2.1
				c-1.6,0-2.9,0.7-3.7,2.1c-0.9,1.4-1.3,3.4-1.3,6c0,2.6,0.4,4.6,1.3,6c0.9,1.4,2.1,2.1,3.7,2.1c1.6,0,2.9-0.7,3.8-2.1
				C54.4,221.5,54.9,219.5,54.9,216.9z"/>
			<path class="st0" d="M77.7,220.9l4.5-12.8h1.3l-6.3,17.8h-1.1l-4.1-10.4l-3.6,10.4h-1.1l-5.7-14.7c-0.4-1-0.8-1.7-1.2-2.1
				c-0.4-0.4-0.9-0.6-1.4-0.7v-0.5c0.1,0,0.2,0,0.5,0c0.3,0,0.5,0,0.6,0c0.5,0,0.9,0,1.4,0.1c0.5,0.1,1,0.2,1.4,0.4
				c0.5,0.2,0.9,0.6,1.3,1c0.4,0.5,0.8,1.1,1.1,1.8l3.6,9.2l2.4-6.8l-0.9-2.4c-0.4-1-0.8-1.7-1.3-2.1c-0.5-0.4-1-0.6-1.5-0.7v-0.5
				c0.1,0,0.2,0,0.5,0c0.2,0,0.4,0,0.6,0c0.5,0,0.9,0,1.4,0.1c0.5,0.1,1,0.2,1.5,0.4c0.5,0.2,0.9,0.6,1.3,1c0.4,0.5,0.8,1.1,1.1,1.8
				L77.7,220.9z"/>
			<path class="st0" d="M86.8,208.1h3.5l0,14.1c0,0.8,0.1,1.4,0.3,1.9c0.2,0.5,0.7,0.7,1.5,0.7h0.3v0.8h-3.2c-0.5,0-0.8-0.1-1.2-0.2
				c-0.3-0.1-0.6-0.3-0.7-0.6c-0.2-0.3-0.3-0.6-0.4-1.1s-0.1-1-0.1-1.7L86.8,208.1z"/>
			<path class="st0" d="M108.7,220.3v-12.2h1.3v17.6h-1.2l-11.3-13.3v13.2h-1.3v-14.4c0-0.3,0-0.7-0.1-0.9c-0.1-0.3-0.2-0.5-0.4-0.8
				c-0.2-0.2-0.4-0.4-0.7-0.5c-0.3-0.1-0.7-0.2-1.2-0.2h-0.1v-0.8h1.9c1,0,1.8,0.1,2.5,0.4c0.6,0.3,1.1,0.7,1.6,1.2L108.7,220.3z"/>
			<path class="st0" d="M130.3,224.4c-1,0.6-2.1,1.1-3.3,1.4c-1.2,0.3-2.4,0.4-3.8,0.4c-1.4,0-2.7-0.2-3.8-0.7c-1.2-0.5-2.2-1.2-3-2
				c-0.9-0.9-1.5-1.9-2-3s-0.7-2.4-0.7-3.8c0-1.3,0.2-2.5,0.6-3.6c0.4-1.1,1-2.1,1.8-2.9c0.8-0.8,1.7-1.5,2.8-1.9
				c1.1-0.5,2.3-0.7,3.6-0.7c1.7,0,3,0.2,4.1,0.7c1.1,0.4,1.8,0.9,2.3,1.5c0.2,0.2,0.3,0.5,0.4,0.8c0.1,0.3,0.2,0.6,0.2,0.9
				c0,0.3,0.1,0.7,0.1,1c0,0.3,0,0.7,0,1l-0.8,0c-0.3-1.6-1-2.8-1.9-3.6c-0.9-0.7-2.1-1.1-3.7-1.1c-1.1,0-2,0.2-2.7,0.7
				c-0.7,0.4-1.3,1-1.8,1.7c-0.5,0.7-0.8,1.6-1,2.5c-0.2,0.9-0.3,1.9-0.3,2.9c0,1.6,0.2,3,0.5,4.1c0.3,1.1,0.7,2,1.3,2.6
				c0.5,0.7,1.2,1.1,1.9,1.4c0.7,0.3,1.5,0.4,2.3,0.4c0.8,0,1.5-0.1,2-0.2c0.6-0.1,1.1-0.3,1.5-0.5v-4.7c0-0.4,0.1-0.7,0.2-1.1
				s0.4-0.7,0.7-1c0.4-0.3,0.9-0.6,1.6-0.8c0.7-0.2,1.6-0.3,2.7-0.3v0.7c-0.6,0-1,0.2-1.3,0.7c-0.3,0.4-0.4,1.1-0.4,1.9V224.4z"/>
			<path class="st0" d="M153.7,208.1h3.5l0,14.1c0,0.8,0.1,1.4,0.3,1.9c0.2,0.5,0.7,0.7,1.5,0.7h0.3v0.8l-3.2,0
				c-0.5,0-0.8-0.1-1.2-0.2c-0.3-0.1-0.6-0.3-0.7-0.6c-0.2-0.3-0.3-0.6-0.4-1.1s-0.1-1-0.1-1.7v-5.1h-7.2l0,8.5h-3.5l0-14.1
				c0-0.8-0.1-1.4-0.3-1.9c-0.2-0.5-0.7-0.7-1.5-0.7H141v-0.8h3.2c0.5,0,0.8,0.1,1.2,0.2c0.3,0.1,0.6,0.3,0.7,0.6
				c0.2,0.3,0.3,0.6,0.4,1.1c0.1,0.4,0.1,1,0.1,1.7v4.4h7.2V208.1z"/>
			<path class="st0" d="M175.7,222.3c0.3,0.8,0.7,1.4,1.2,1.9c0.5,0.5,1,0.7,1.6,0.8l0,0.7c-0.1,0-0.3,0.1-0.6,0.1
				c-0.3,0-0.5,0-0.7,0c-0.4,0-0.9,0-1.4-0.1c-0.5-0.1-1-0.2-1.4-0.5c-0.5-0.2-0.9-0.6-1.3-1c-0.4-0.5-0.8-1.1-1.1-1.8l-0.6-1.5
				h-7.1l-2.2,4.8h-1.3l7.9-17.6h1.2L175.7,222.3z M164.8,219.6h6l-2.9-6.9L164.8,219.6z"/>
			<path class="st0" d="M186.3,208.1c0.4,0,0.8,0,1.4,0.1c0.5,0,1,0.1,1.6,0.3c0.5,0.1,1.1,0.3,1.6,0.5c0.5,0.2,1,0.5,1.4,0.9
				c0.4,0.4,0.7,0.9,1,1.5c0.2,0.6,0.4,1.3,0.4,2.1c0,0.8-0.1,1.4-0.4,2c-0.2,0.6-0.6,1-0.9,1.4c-0.4,0.4-0.8,0.7-1.3,0.9
				c-0.5,0.2-1,0.4-1.4,0.5c-0.5,0.1-0.9,0.2-1.3,0.2s-0.8,0.1-1,0.1h-2.5v7.1h-3.5l0-14.1c0-0.8-0.1-1.4-0.3-1.9
				c-0.2-0.5-0.7-0.7-1.5-0.7h-0.3v-0.8H186.3z M186.3,209.1c-0.2,0-0.4,0-0.6,0s-0.4,0-0.6,0.1c-0.2,0-0.4,0.1-0.5,0.1v8.1h1.6
				c0.4,0,0.9-0.1,1.3-0.2c0.4-0.1,0.8-0.3,1.2-0.7c0.3-0.3,0.6-0.7,0.8-1.3c0.2-0.5,0.3-1.2,0.3-2c0-0.8-0.1-1.5-0.3-2
				c-0.2-0.5-0.5-1-0.8-1.3c-0.3-0.3-0.7-0.5-1.1-0.7C187.1,209.2,186.7,209.1,186.3,209.1z"/>
			<path class="st0" d="M202.4,208.1c0.4,0,0.8,0,1.4,0.1c0.5,0,1,0.1,1.6,0.3c0.5,0.1,1.1,0.3,1.6,0.5c0.5,0.2,1,0.5,1.4,0.9
				c0.4,0.4,0.7,0.9,1,1.5c0.2,0.6,0.4,1.3,0.4,2.1c0,0.8-0.1,1.4-0.4,2c-0.2,0.6-0.6,1-0.9,1.4c-0.4,0.4-0.8,0.7-1.3,0.9
				c-0.5,0.2-1,0.4-1.4,0.5c-0.5,0.1-0.9,0.2-1.3,0.2c-0.4,0-0.8,0.1-1,0.1h-2.5v7.1h-3.5v-14.1c0-0.8-0.1-1.4-0.3-1.9
				c-0.2-0.5-0.7-0.7-1.5-0.7h-0.3v-0.8H202.4z M202.4,209.1c-0.2,0-0.4,0-0.6,0s-0.4,0-0.6,0.1c-0.2,0-0.4,0.1-0.5,0.1v8.1h1.6
				c0.4,0,0.9-0.1,1.3-0.2c0.4-0.1,0.8-0.3,1.2-0.7c0.3-0.3,0.6-0.7,0.8-1.3c0.2-0.5,0.3-1.2,0.3-2s-0.1-1.5-0.3-2
				c-0.2-0.5-0.5-1-0.8-1.3c-0.3-0.3-0.7-0.5-1.1-0.7C203.3,209.2,202.8,209.1,202.4,209.1z"/>
			<path class="st0" d="M212.9,208.1h3.5l0,14.1c0,0.8,0.1,1.4,0.3,1.9c0.2,0.5,0.7,0.7,1.5,0.7h0.3v0.8h-3.2
				c-0.5,0-0.8-0.1-1.2-0.2c-0.3-0.1-0.6-0.3-0.7-0.6c-0.2-0.3-0.3-0.6-0.4-1.1c-0.1-0.4-0.1-1-0.1-1.7V208.1z"/>
			<path class="st0" d="M234.9,220.3l0-12.2h1.3v17.6H235l-11.3-13.3l0,13.2h-1.3v-14.4c0-0.3,0-0.7-0.1-0.9
				c-0.1-0.3-0.2-0.5-0.4-0.8c-0.2-0.2-0.4-0.4-0.7-0.5c-0.3-0.1-0.7-0.2-1.2-0.2h-0.1v-0.8h1.9c1,0,1.8,0.1,2.5,0.4
				c0.6,0.3,1.1,0.7,1.6,1.2L234.9,220.3z"/>
			<path class="st0" d="M251.1,208.1c0.5,0,0.8,0.1,1.1,0.2c0.3,0.1,0.5,0.3,0.7,0.5c0.2,0.2,0.3,0.4,0.3,0.7
				c0.1,0.3,0.1,0.5,0.1,0.8v2.3h-0.8c0-1.1-0.3-2-0.9-2.4c-0.6-0.5-1.4-0.7-2.5-0.7h-4.3v6.7l6.9,0v1.2h-6.9l0,7.3l4.6,0
				c1,0,1.8-0.2,2.5-0.7c0.7-0.4,1.3-1.2,1.7-2.4l0.7,0.3l-0.8,2.1c-0.2,0.6-0.4,1-0.8,1.4c-0.3,0.3-0.8,0.5-1.6,0.5l-9.8,0l0-14.1
				c0-0.8-0.1-1.4-0.3-1.9c-0.2-0.5-0.7-0.7-1.5-0.7h-0.3v-0.8H251.1z"/>
			<path class="st0" d="M263,226.1c-0.7,0-1.5-0.1-2.2-0.2c-0.7-0.1-1.4-0.4-1.9-0.6c-0.6-0.3-1-0.6-1.4-1s-0.5-0.8-0.5-1.3v-3.1
				h0.8c0.3,1.8,0.9,3.2,1.7,3.9c0.9,0.8,2,1.2,3.5,1.2c1,0,1.8-0.2,2.4-0.7c0.6-0.4,0.9-1.1,0.9-1.9c0-0.8-0.2-1.4-0.7-1.9
				c-0.5-0.5-1.2-1-2-1.5l-3.3-2c-1.2-0.7-2.1-1.4-2.6-2.2c-0.5-0.7-0.7-1.6-0.7-2.6c0-1.4,0.5-2.5,1.6-3.3c1.1-0.8,2.5-1.2,4.4-1.2
				c0.7,0,1.5,0.1,2.2,0.2c0.7,0.1,1.4,0.4,1.9,0.6c0.6,0.3,1,0.6,1.4,1c0.4,0.4,0.5,0.8,0.5,1.3v3.1h-0.8c-0.3-1.8-0.9-3.2-1.7-3.9
				c-0.8-0.8-1.9-1.2-3.3-1.2c-1,0-1.7,0.2-2.3,0.7c-0.6,0.5-0.8,1.1-0.8,1.9c0,0.4,0.1,0.7,0.2,1c0.1,0.3,0.3,0.6,0.6,0.8
				c0.2,0.2,0.5,0.5,0.9,0.7c0.3,0.2,0.7,0.5,1.1,0.7l3.3,1.9c1.2,0.7,2.1,1.4,2.6,2.1c0.6,0.7,0.8,1.5,0.8,2.5
				c0,1.5-0.6,2.7-1.7,3.6C266.8,225.7,265.1,226.1,263,226.1z"/>
			<path class="st0" d="M278.7,226.1c-0.7,0-1.5-0.1-2.2-0.2c-0.7-0.1-1.4-0.4-1.9-0.6c-0.6-0.3-1-0.6-1.4-1
				c-0.4-0.4-0.5-0.8-0.5-1.3v-3.1h0.8c0.3,1.8,0.9,3.2,1.7,3.9c0.9,0.8,2,1.2,3.5,1.2c1,0,1.8-0.2,2.4-0.7c0.6-0.4,0.9-1.1,0.9-1.9
				c0-0.8-0.2-1.4-0.7-1.9c-0.5-0.5-1.2-1-2-1.5l-3.3-2c-1.2-0.7-2.1-1.4-2.6-2.2c-0.5-0.7-0.7-1.6-0.7-2.6c0-1.4,0.5-2.5,1.6-3.3
				s2.5-1.2,4.4-1.2c0.7,0,1.5,0.1,2.2,0.2c0.7,0.1,1.4,0.4,1.9,0.6c0.6,0.3,1,0.6,1.4,1c0.4,0.4,0.5,0.8,0.5,1.3v3.1h-0.8
				c-0.3-1.8-0.9-3.2-1.7-3.9c-0.8-0.8-1.9-1.2-3.3-1.2c-1,0-1.7,0.2-2.3,0.7c-0.6,0.5-0.8,1.1-0.8,1.9c0,0.4,0.1,0.7,0.2,1
				c0.1,0.3,0.3,0.6,0.6,0.8c0.2,0.2,0.5,0.5,0.9,0.7c0.3,0.2,0.7,0.5,1.1,0.7l3.3,1.9c1.2,0.7,2.1,1.4,2.6,2.1
				c0.6,0.7,0.8,1.5,0.8,2.5c0,1.5-0.6,2.7-1.7,3.6C282.5,225.7,280.9,226.1,278.7,226.1z"/>
			<path class="st0" d="M291.8,224.4c0,0.5-0.1,0.9-0.4,1.2c-0.3,0.3-0.7,0.5-1.2,0.5c-0.5,0-0.9-0.2-1.2-0.5
				c-0.3-0.3-0.4-0.7-0.4-1.2c0-0.5,0.1-0.9,0.4-1.2s0.7-0.5,1.2-0.5c0.5,0,0.9,0.2,1.2,0.5S291.8,223.9,291.8,224.4z"/>
		</g>
	</g>
	<g>
		<g>
			<path class="st0" d="M299.4,41.4h-2.3v6.4h-1.3v-6.4h-2.3v-1.2h5.9V41.4z"/>
			<path class="st0" d="M308.5,40.1l0,7.7h-1.3v-5.6l-2.3,4.1l-0.7,0l-2.3-4.1l0,5.6h-1.3l0-7.7h1.6l2.4,4.2l2.4-4.2H308.5z"/>
		</g>
	</g>
</g>
</svg>