<?xml version="1.0" encoding="utf-8"?>
<!-- Generator: Adobe Illustrator 28.7.1, SVG Export Plug-In . SVG Version: 9.03 Build 54978)  -->
<svg version="1.1" id="Capa_1" xmlns="http://www.w3.org/2000/svg" xmlns:xlink="http://www.w3.org/1999/xlink" x="0px" y="0px"
	 viewBox="0 0 195.1 220.5" style="enable-background:new 0 0 195.1 220.5;fill: #fff;" xml:space="preserve">
<style type="text/css">
	<!-- .st0{fill-rule:evenodd;clip-rule:evenodd;fill:#EE1D52;}
	.st1{fill-rule:evenodd;clip-rule:evenodd;}
	.st2{fill-rule:evenodd;clip-rule:evenodd;fill:#69C9D0;} -->
</style>
<g>
	<path class="st0" d="M144.6,79.6c14.2,10.2,31.7,16.2,50.5,16.2V59.5c-3.6,0-7.1-0.4-10.6-1.1v28.5c-18.8,0-36.3-6-50.5-16.2v73.9
		c0,37-30,67-67,67c-13.8,0-26.6-4.2-37.3-11.3c12.2,12.4,29.1,20.1,47.9,20.1c37,0,67-30,67-67L144.6,79.6L144.6,79.6z M157.7,43
		c-7.3-7.9-12.1-18.2-13.1-29.6V8.8h-10.1C137.1,23.2,145.7,35.6,157.7,43L157.7,43z M53.1,172c-4.1-5.3-6.3-11.8-6.3-18.5
		c0-16.9,13.7-30.6,30.6-30.6c3.2,0,6.3,0.5,9.3,1.4v-37c-3.5-0.5-7.1-0.7-10.6-0.6v28.8c-3-1-6.1-1.4-9.3-1.4
		c-16.9,0-30.6,13.7-30.6,30.6C36.2,156.6,43.1,166.9,53.1,172z"/>
	<path class="st1" d="M134,70.8c14.2,10.2,31.7,16.2,50.5,16.2V58.4c-10.5-2.2-19.8-7.7-26.8-15.4c-12-7.5-20.6-19.8-23.1-34.2
		h-26.4v144.7c-0.1,16.9-13.8,30.5-30.6,30.5c-10,0-18.8-4.7-24.4-12.1c-10-5-16.9-15.4-16.9-27.4c0-16.9,13.7-30.6,30.6-30.6
		c3.2,0,6.4,0.5,9.3,1.4V86.6c-36.4,0.8-65.6,30.4-65.6,67c0,18.2,7.3,34.7,19.1,46.8c10.7,7.2,23.5,11.3,37.3,11.3
		c37,0,67-30,67-67V70.8z"/>
	<path class="st2" d="M184.5,58.4v-7.7c-9.5,0-18.8-2.6-26.8-7.7C164.8,50.8,174.2,56.2,184.5,58.4z M134.6,8.8
		c-0.2-1.4-0.4-2.8-0.6-4.2V0H97.5v144.7c-0.1,16.9-13.8,30.5-30.6,30.5c-5,0-9.6-1.2-13.8-3.3c5.6,7.3,14.4,12.1,24.4,12.1
		c16.9,0,30.6-13.7,30.6-30.5V8.8H134.6z M76.2,86.6v-8.2c-3-0.4-6.1-0.6-9.2-0.6c-37,0-67,30-67,67c0,23.2,11.8,43.6,29.7,55.6
		c-11.8-12.1-19.1-28.6-19.1-46.8C10.6,117,39.8,87.3,76.2,86.6L76.2,86.6z"/>
</g>
</svg>